<?xml version="1.0" encoding="UTF-8"?>
<svg id="Layer_2" data-name="Layer 2" xmlns="http://www.w3.org/2000/svg" viewBox="0 0 1000 277">
  <line x1="174.44" y1="166.66" x2="962.27" y2="166.66" style="fill: #f26101; stroke: #f15a24; stroke-miterlimit: 10; stroke-width: 1.15px;"/>
  <circle cx="105.48" cy="165.52" r="72.98" style="fill: #fff;"/>
  <circle cx="106.05" cy="166.09" r="24.71" style="fill: #034aa6;"/>
  <path d="M83.64,142.53c-2.4,4.43-5.73,9.64-10.34,14.94-2.74,3.15-5.48,5.82-8.04,8.04,2.62,2.73,5.33,5.79,8.04,9.19,4.16,5.22,7.57,10.29,10.34,14.94-6.2-3.63-12.76-7.81-19.54-12.64-5.42-3.86-10.39-7.72-14.94-11.49,4.99-3.79,10.35-7.64,16.09-11.49,6.33-4.24,12.48-8.06,18.39-11.49Z" style="fill: #034aa6;"/>
  <path d="M127.32,142.53c2.4,4.43,5.73,9.64,10.34,14.94,2.74,3.15,5.48,5.82,8.04,8.04-2.62,2.73-5.33,5.79-8.04,9.19-4.16,5.22-7.57,10.29-10.34,14.94,6.2-3.63,12.76-7.81,19.54-12.64,5.42-3.86,10.39-7.72,14.94-11.49-4.99-3.79-10.35-7.64-16.09-11.49-6.33-4.24-12.48-8.06-18.39-11.49Z" style="fill: #034aa6;"/>
  <g>
    <g>
      <path d="M257.59,143.51c-1.17,3-5,7.17-13.33,7.17-6.83,0-11.5-3.67-12-9.5h-.33c-4.67,7.17-11,9.5-19.17,9.5-13.83,0-20.84-8.17-20.84-18.17,0-10.83,6.33-15.67,14.33-17.67,4.33-1.17,12.33-3.17,16.83-4.83,6.17-2,8.67-3,8.67-7.17v-9.83c0-13-5.5-14.84-12.5-14.84-9.83,0-12.33,3.33-12.33,5.67,0,3.33,4.67,3.5,4.67,9.17,0,4.67-3.83,7.5-8.17,7.5s-7.83-3.5-7.83-8.17c0-9.33,12-15.83,23.5-15.83,15.67,0,27.17,8,27.17,23.5v42.84c0,2.67,.67,4.83,3.33,4.83,2.17,0,5-1.67,6.17-4.5,.17-.83,.5-1,1.17-.83,.67,.17,.83,.5,.67,1.17Zm-25.84-8.33v-26.84c-15.33,6.33-22.84,7.17-23.67,20.34,0,3.33-.17,8.33,.17,11.17,.5,3.83,1.67,8.83,8.83,8.83,8,0,14.67-7.33,14.67-13.5Z" style="fill: #fff;"/>
      <path d="M294.76,148.68h-33.34c-1,0-1.33-.17-1.33-.83s.33-.83,1.33-.83h7.17c1.33,0,1.5-1.67,1.5-6.5v-59.01c0-.5-.33-1-1.67-1h-5.17c-1.33,0-1.67-.33-1.67-1s.5-1,1.67-1h5.17c1.33,0,1.67-.67,1.67-1.17v-22c0-15.34,9.5-26.34,24.34-26.34,9.17,0,19,5.83,19,14.5,0,4.83-3.33,8.5-8.17,8.5-4.5,0-8.33-3.17-8.33-7.83,0-5.83,4.33-6.17,4.33-9.33,0-3-4-4.17-8-4.17-6,0-8.83,3.33-8.83,9.17v37.5c0,.5,.33,1.17,1.67,1.17h12c1.33,0,1.67,.33,1.67,1s-.5,1-1.67,1h-12c-1.33,0-1.67,.5-1.67,1v59.01c0,4.83,.17,6.5,1.5,6.5h8.83c1.17,0,1.5,.17,1.5,.83s-.33,.83-1.5,.83Z" style="fill: #fff;"/>
      <path d="M339.6,148.68h-33.5c-1,0-1.33-.17-1.33-.83s.33-.83,1.33-.83h7.17c1.33,0,1.5-1.67,1.5-6.5v-54.01c0-4.83-.17-6.33-1.5-6.33h-7.17c-1,0-1.33-.17-1.33-.83s.33-.83,1.33-.83h21.34c1.17,0,1.33,.33,1.33,.83v7h.33c3.33-6,9.33-9.83,16.17-9.83s13.83,4,13.83,11.83c0,5.17-3.67,8.83-8.67,8.83-4.33,0-8.33-3.33-8.33-8s3.83-5.33,3.83-8c0-1.83-1.5-2.83-3.17-2.83-6.67,0-13.67,7-13.67,14.17v48.01c0,4.83,.17,6.5,1.5,6.5h9c1,0,1.33,.17,1.33,.83s-.33,.83-1.33,.83Z" style="fill: #fff;"/>
      <path d="M395.6,148.68h-31.67c-1,0-1.33-.17-1.33-.83s.33-.83,1.33-.83h7.17c1.33,0,1.5-1.67,1.5-6.5v-54.01c0-4.83-.17-6.33-1.5-6.33h-7.17c-1,0-1.33-.17-1.33-.83s.33-.83,1.33-.83h21.67c1.17,0,1.33,.33,1.33,.83v61.17c0,4.83,.17,6.5,1.5,6.5h7.17c1,0,1.33,.17,1.33,.83s-.33,.83-1.33,.83Zm-15.83-98.68c-5,0-8.83-3.83-8.83-8.83s3.83-9.17,8.83-9.17,8.67,4,8.67,9.17-3.83,8.83-8.67,8.83Z" style="fill: #fff;"/>
      <path d="M403.27,113.84c0-17.34,7.83-37.34,33.17-37.34,11.83,0,24.34,6.17,24.34,17.17,0,5.17-3.67,9-8.5,9s-8.67-3.33-8.67-8.33c0-6.33,4.33-6.5,4.33-10.17,0-4-5-6-11.33-6-11.67,0-14,7.33-15.17,20-1,9.67-1,21.17-.17,30.84,1,9.33,5.33,19.67,17.34,19.67,11,0,21.5-9.17,21.5-24.67,0-2,.17-2.67,1.5-2.67,.83,0,1.17,.67,1.17,1.83,0,12-7,27.5-26,27.5-22.5,0-33.5-16-33.5-36.84Z" style="fill: #fff;"/>
      <path d="M537.28,143.51c-1.17,3-5,7.17-13.33,7.17-6.83,0-11.5-3.67-12-9.5h-.33c-4.67,7.17-11,9.5-19.17,9.5-13.83,0-20.84-8.17-20.84-18.17,0-10.83,6.33-15.67,14.33-17.67,4.33-1.17,12.33-3.17,16.84-4.83,6.17-2,8.67-3,8.67-7.17v-9.83c0-13-5.5-14.84-12.5-14.84-9.83,0-12.33,3.33-12.33,5.67,0,3.33,4.67,3.5,4.67,9.17,0,4.67-3.83,7.5-8.17,7.5s-7.83-3.5-7.83-8.17c0-9.33,12-15.83,23.5-15.83,15.67,0,27.17,8,27.17,23.5v42.84c0,2.67,.67,4.83,3.33,4.83,2.17,0,5-1.67,6.17-4.5,.17-.83,.5-1,1.17-.83,.67,.17,.83,.5,.67,1.17Zm-25.84-8.33v-26.84c-15.33,6.33-22.84,7.17-23.67,20.34,0,3.33-.17,8.33,.17,11.17,.5,3.83,1.67,8.83,8.83,8.83,8,0,14.67-7.33,14.67-13.5Z" style="fill: #fff;"/>
      <path d="M582.12,150.68c-9.67,0-15.17-5-18-9.67h-.33v6.83c0,.5-.17,.83-1.33,.83h-21.34c-1,0-1.33-.17-1.33-.83s.33-.83,1.33-.83h7.17c1.33,0,1.5-1.67,1.5-6.33V39.16c0-4.83-.17-6.5-1.5-6.5h-7.17c-1,0-1.33-.17-1.33-.83s.33-.83,1.33-.83h21.67c1.17,0,1.33,.33,1.33,.83v54.17h.17c2.83-4.67,8.17-9.5,17.83-9.5,16.17,0,31.34,12.67,31.34,37s-15,37.17-31.34,37.17Zm13.5-50.67c-1.17-14-4.17-21.67-15.67-21.67-10.83,0-15.83,9.83-15.83,13.67v43.17c0,3.83,5,13.67,15.83,13.67,11.5,0,14.5-7.67,15.67-21.67,.83-8.17,.67-20.17,0-27.17Z" style="fill: #fff;"/>
      <path d="M658.3,150.68c-21.5,0-34.84-16.84-34.84-36.84s12.5-37.34,34.67-37.34,34.67,16.83,34.67,36.84-12.33,37.34-34.5,37.34Zm16.5-52.51c-1-10-3.33-20-16.67-20-14.17,0-15.67,10-16.67,20.34-.83,9.67-.83,20.67,.17,30.5,.83,10,3.33,20,16.67,20,14.17,0,15.67-10,16.5-20.34,1-9.67,1-20.67,0-30.5Z" style="fill: #fff;"/>
      <path d="M775.15,148.68h-21.34c-1.17,0-1.5-.33-1.5-.83v-6.67h-.17c-2.83,4.5-7.67,9.5-18.67,9.5s-25.17-6.5-25.17-25.84v-38.17c0-4.83-.17-6.5-1.5-6.5h-7.17c-1,0-1.33-.17-1.33-.83s.33-.83,1.33-.83h21.67c1.17,0,1.33,.33,1.33,.83v54.84c0,13.17,9,14.67,13.83,14.67,10.83,0,15.5-9.83,15.5-13.83v-48.34c0-4.83-.17-6.5-1.5-6.5h-7c-1,0-1.33-.17-1.33-.83s.33-.83,1.33-.83h21.67c1.17,0,1.33,.33,1.33,.83v61.34c0,4.67,.17,6.33,1.5,6.33h7.17c1,0,1.33,.17,1.33,.83s-.33,.83-1.33,.83Z" style="fill: #fff;"/>
      <path d="M815.98,148.68h-33.5c-1,0-1.33-.17-1.33-.83s.33-.83,1.33-.83h7.17c1.33,0,1.5-1.67,1.5-6.5v-54.01c0-4.83-.17-6.33-1.5-6.33h-7.17c-1,0-1.33-.17-1.33-.83s.33-.83,1.33-.83h21.34c1.17,0,1.33,.33,1.33,.83v7h.33c3.33-6,9.33-9.83,16.17-9.83s13.83,4,13.83,11.83c0,5.17-3.67,8.83-8.67,8.83-4.33,0-8.33-3.33-8.33-8s3.83-5.33,3.83-8c0-1.83-1.5-2.83-3.17-2.83-6.67,0-13.67,7-13.67,14.17v48.01c0,4.83,.17,6.5,1.5,6.5h9c1,0,1.33,.17,1.33,.83s-.33,.83-1.33,.83Z" style="fill: #fff;"/>
      <path d="M865.49,150.68c-5.5,0-11.67-.83-16.67-2.83-2-.83-4.5-1.5-4.5,.17v.33c0,1-.33,1.5-1,1.5s-.83-.33-.83-1.5v-24.84c0-1,.17-1.5,.83-1.5s1,.33,1,1.5v2.5c0,14.83,10.5,23,20.5,23s14.33-5,14.33-11.5c0-20.34-36.5-16.17-36.5-41,0-8.17,6-20,21.34-20,4.17,0,8.5,.83,12.67,2.67,2.33,.83,4.67,1.83,4.67,0v-.5c0-1,.33-1.33,1-1.33s.83,.33,.83,1.33v22.34c0,1-.33,1.33-.83,1.33-.83,0-1-.33-1-1.33v-1.67c0-13.67-8.17-21.17-17.33-21.17-8.33,0-11.33,5.5-11.33,10.5,0,20,37,16,37,41,0,10.5-9,21-24.17,21Z" style="fill: #fff;"/>
      <path d="M899.33,113.84c0-19.17,9.5-37.34,31.67-37.34,16.17,0,29.17,9.67,29.17,25.5,0,5-1.5,6.5-4.83,6.5h-37.34c-.5,0-1.17,0-1.17,1-.17,6.33,0,13.33,.5,19.5,1,9.33,5,19.67,18.17,19.67s22.84-9.33,22.84-24.67c0-2,.17-2.67,1.5-2.67,.83,0,1.17,.67,1.17,1.83,0,12-6.67,27.5-27.17,27.5-23.5,0-34.5-15.84-34.5-36.84Zm31.5-35.67c-9.83,0-12.67,8.83-13.5,20.34-.17,2.67-.33,5.17-.33,7,0,1.17,.5,1,1,1h24.84c.5,0,1.33-.33,1.33-1.33,0-4.33-.33-9.83-1.33-14.67-1.33-7.17-4.83-12.33-12-12.33Z" style="fill: #fff;"/>
    </g>
    <g>
      <path d="M208.43,183.95h2.43l20.48,57.27h-2.95l-7.12-20.48h-23.34l-7.2,20.48h-2.78l20.48-57.27Zm-9.63,34.36h21.61l-3.99-11.45c-2.43-6.94-4.51-12.84-6.59-19.96h-.35c-2.08,7.12-4.17,13.02-6.6,19.96l-4.08,11.45Z" style="fill: #fff;"/>
      <path d="M238.97,233.59l1.91-1.91c4.17,4.86,10.24,7.98,17.18,7.98,9.2,0,15.1-5.03,15.1-12.32s-4.86-10.07-10.59-12.67l-8.85-3.99c-4.86-2.17-11.63-5.55-11.63-14.06s6.94-13.71,16.14-13.71c6.94,0,12.32,3.21,15.62,6.77l-1.74,1.91c-3.3-3.64-7.98-6.07-13.88-6.07-7.98,0-13.36,4.34-13.36,10.93,0,7.12,5.99,9.81,10.07,11.63l8.85,3.99c6.33,2.86,12.15,6.25,12.15,15.1s-7.12,15.1-17.88,15.1c-8.5,0-14.75-3.64-19.09-8.68Z" style="fill: #fff;"/>
      <path d="M285.48,233.59l1.91-1.91c4.17,4.86,10.24,7.98,17.18,7.98,9.2,0,15.1-5.03,15.1-12.32s-4.86-10.07-10.59-12.67l-8.85-3.99c-4.86-2.17-11.63-5.55-11.63-14.06s6.94-13.71,16.14-13.71c6.94,0,12.32,3.21,15.62,6.77l-1.74,1.91c-3.3-3.64-7.98-6.07-13.88-6.07-7.98,0-13.36,4.34-13.36,10.93,0,7.12,5.99,9.81,10.07,11.63l8.85,3.99c6.33,2.86,12.15,6.25,12.15,15.1s-7.12,15.1-17.88,15.1c-8.5,0-14.75-3.64-19.09-8.68Z" style="fill: #fff;"/>
      <path d="M337.38,183.95h30.72v2.43h-27.94v23.08h23.43v2.43h-23.43v26.9h28.81v2.43h-31.59v-57.27Z" style="fill: #fff;"/>
      <path d="M396.73,186.38h-18.57v-2.43h39.92v2.43h-18.57v54.84h-2.78v-54.84Z" style="fill: #fff;"/>
      <path d="M451.92,183.95h4.51l12.32,34.71c1.56,4.34,3.12,8.68,4.69,13.02h.35c1.56-4.34,2.95-8.68,4.51-13.02l12.32-34.71h4.51v57.27h-2.78v-39.92c0-4.51,.17-10.24,.35-14.93h-.35l-4.42,12.67-12.93,35.75h-2.95l-13.02-35.75-4.51-12.67h-.35c.17,4.69,.35,10.41,.35,14.93v39.92h-2.6v-57.27Z" style="fill: #fff;"/>
      <path d="M527.77,183.95h2.43l20.48,57.27h-2.95l-7.12-20.48h-23.34l-7.2,20.48h-2.78l20.48-57.27Zm-9.63,34.36h21.61l-3.99-11.45c-2.43-6.94-4.51-12.84-6.59-19.96h-.35c-2.08,7.12-4.17,13.02-6.6,19.96l-4.08,11.45Z" style="fill: #fff;"/>
      <path d="M562.82,183.95h2.95l25.34,42c2.26,3.82,4.51,7.64,6.59,11.28h.35c-.17-5.55-.35-10.76-.35-16.14v-37.14h2.6v57.27h-2.95l-25.34-42c-2.26-3.82-4.51-7.64-6.59-11.28h-.35c.17,5.38,.35,10.24,.35,15.62v37.66h-2.6v-57.27Z" style="fill: #fff;"/>
      <path d="M632.94,183.95h2.43l20.48,57.27h-2.95l-7.12-20.48h-23.34l-7.2,20.48h-2.78l20.48-57.27Zm-9.63,34.36h21.61l-3.99-11.45c-2.43-6.94-4.51-12.84-6.59-19.96h-.35c-2.08,7.12-4.17,13.02-6.6,19.96l-4.08,11.45Z" style="fill: #fff;"/>
      <path d="M663.31,212.41c0-18.05,9.89-29.5,24.99-29.5,7.64,0,12.32,3.65,15.27,6.77l-1.74,1.91c-2.95-3.3-7.12-6.07-13.54-6.07-13.71,0-22.04,10.41-22.04,26.9s7.98,27.25,21.35,27.25c5.55,0,10.76-1.74,13.71-4.69v-18.92h-14.23v-2.43h17.01v22.21c-3.47,3.82-9.2,6.42-16.66,6.42-14.58,0-24.12-11.8-24.12-29.85Z" style="fill: #fff;"/>
      <path d="M721.8,183.95h30.72v2.43h-27.94v23.08h23.43v2.43h-23.43v26.9h28.81v2.43h-31.59v-57.27Z" style="fill: #fff;"/>
      <path d="M768.66,183.95h4.51l12.32,34.71c1.56,4.34,3.12,8.68,4.69,13.02h.35c1.56-4.34,2.95-8.68,4.51-13.02l12.32-34.71h4.51v57.27h-2.78v-39.92c0-4.51,.17-10.24,.35-14.93h-.35l-4.42,12.67-12.93,35.75h-2.95l-13.02-35.75-4.51-12.67h-.35c.17,4.69,.35,10.41,.35,14.93v39.92h-2.6v-57.27Z" style="fill: #fff;"/>
      <path d="M831.83,183.95h30.72v2.43h-27.94v23.08h23.43v2.43h-23.43v26.9h28.81v2.43h-31.59v-57.27Z" style="fill: #fff;"/>
      <path d="M878.69,183.95h2.95l25.34,42c2.26,3.82,4.51,7.64,6.59,11.28h.35c-.17-5.55-.35-10.76-.35-16.14v-37.14h2.6v57.27h-2.95l-25.34-42c-2.26-3.82-4.51-7.64-6.59-11.28h-.35c.17,5.38,.35,10.24,.35,15.62v37.66h-2.6v-57.27Z" style="fill: #fff;"/>
      <path d="M948.64,186.38h-18.57v-2.43h39.92v2.43h-18.57v54.84h-2.78v-54.84Z" style="fill: #fff;"/>
    </g>
  </g>
</svg>