<svg viewBox="0 0 96 96" xmlns="http://www.w3.org/2000/svg" xmlns:xlink="http://www.w3.org/1999/xlink" id="Icons_DiplomaRoll" overflow="hidden"><path d="M89.84 42.26C89.84 35.26 85.92 25 77.5 25L59.5 25C59.0532 24.102 58.2807 23.4081 57.34 23.06 56.3779 22.6708 55.3021 22.6708 54.34 23.06 53.5725 22.3634 52.5764 21.9721 51.54 21.96 50.3739 21.95 49.2569 22.4287 48.46 23.28 47.3893 22.81 46.1707 22.81 45.1 23.28 44.3032 23.6379 43.6412 24.2404 43.21 25 43.21 25 16.73 25 16.65 25.06 10.9 25.71 6.5 32.91 6.5 42 6.5 51.53 11.33 59 17.5 59L41 59 41 74 51 66.25 61 74 61 59 84.5 59C85.6046 59 86.5 58.1046 86.5 57 86.5 55.8954 85.6046 55 84.5 55 81.6033 55.1302 79.1456 52.8959 79 50L85 50C87.34 50 89.84 48 89.84 42.26ZM51.34 29.18C56.1891 29.18 60.12 33.111 60.1199 37.9601 60.1199 42.8092 56.1889 46.7401 51.3398 46.74 46.5064 46.7399 42.582 42.8334 42.56 38 42.5379 33.151 46.4509 29.2022 51.2999 29.1801 51.3133 29.18 51.3266 29.18 51.34 29.18ZM39.06 29C39.0401 29.2529 39.0401 29.5071 39.06 29.76 36.9238 30.6007 35.8689 33.01 36.7 35.15 35.9799 35.9259 35.5736 36.9415 35.56 38 35.5721 39.1382 36.049 40.2221 36.88 41 36.4105 42.0673 36.4105 43.2827 36.88 44.35 37.1553 44.9968 37.5885 45.5641 38.14 46L26.92 46C27.6203 44.4254 27.9879 42.7232 28 41 28 36 26.78 31.84 24.73 29ZM17.5 55C14.12 55 10.5 49.78 10.5 42 10.5 34.22 14.12 29 17.5 29 21.27 29 24 34 24 41 24 41 23.93 46 21 46 19.58 46 18 43.65 18 40.5 17.9951 39.8276 18.0655 39.1567 18.21 38.5 18.4502 37.4203 17.7697 36.3502 16.69 36.11 15.6103 35.8698 14.5402 36.5503 14.3 37.63 14.0952 38.5728 13.9946 39.5352 14 40.5 14 45.83 17.08 50 21 50L41 50 41 55ZM51 61.19 45 65.84 45 52.49C45.2317 52.6351 45.476 52.7589 45.73 52.86 46.6948 53.2351 47.7652 53.2351 48.73 52.86 49.5008 53.5755 50.5085 53.9815 51.56 54 52.7251 54.0051 53.8402 53.5272 54.64 52.68 55.3847 52.9932 56.2027 53.0902 57 52.96L57 65.84ZM61 55 61 50.35C61.3043 50.2629 61.5991 50.1457 61.88 50L75 50C75.0001 51.7941 75.5632 53.5429 76.61 55ZM64.4 46C65.3492 45.5609 66.0886 44.7676 66.46 43.79 66.8322 42.8246 66.8322 41.7554 66.46 40.79 67.1665 40.0287 67.5594 39.0286 67.56 37.99 67.5651 36.8249 67.0872 35.7098 66.24 34.91 66.7051 33.8383 66.7051 32.6217 66.24 31.55 65.8276 30.5851 65.0568 29.8179 64.09 29.41 64.0717 29.271 64.0416 29.1339 64 29L77.5 29C81.5 29 84.08 33.35 85.17 37.42 86.44 42.2 85.6 45.65 85 46Z" stroke="#000000" stroke-width="0.501961" fill="#4472C4"/></svg>