<svg xmlns="http://www.w3.org/2000/svg" width="463" height="315" viewBox="0 0 463 315">
  <defs>
    <style>
      .cls-1 {
        fill: red;
      }

      .cls-1, .cls-2, .cls-3 {
        fill-rule: evenodd;
      }

      .cls-2 {
        fill: #160595;
      }

      .cls-3 {
        fill: #c35e28;
        stroke: #4b4b4b;
        stroke-width: 2.83px;
      }
    </style>
  </defs>
  <path class="cls-1" d="M221.185,30.5c73.371,0,132.85,59.23,132.85,132.294s-59.479,132.294-132.85,132.294-132.85-59.23-132.85-132.294S147.814,30.5,221.185,30.5Z"/>
  <path id="Ellipse_1_copie" data-name="Ellipse 1 copie" class="cls-2" d="M219.517,28.275c74.292,0,134.518,59.977,134.518,133.961S293.809,296.2,219.517,296.2,85,236.221,85,162.236,145.225,28.275,219.517,28.275Zm0,133.961,76.709,109.5c14.8,3.244,100.565-119.116,31.128-111.171-39.107,4.474-108.824,3.232-107.837,1.667"/>
  <path id="Rectangle_arrondi_1" data-name="Rectangle arrondi 1" class="cls-3" d="M220.294,28.387h1.741a135,135,0,0,1,135,135v1.74H220.294V28.387Z"/>
</svg>
