<svg xmlns="http://www.w3.org/2000/svg" xmlns:xlink="http://www.w3.org/1999/xlink" width="186.307" height="179.116" viewBox="0 0 186.307 179.116">
  <defs>
    <clipPath id="clip-path">
      <rect id="Rectangle_5015" data-name="Rectangle 5015" width="186.307" height="179.116" fill="none"/>
    </clipPath>
  </defs>
  <g id="Groupe_10569" data-name="Groupe 10569" clip-path="url(#clip-path)">
    <path id="Tracé_5090" data-name="Tracé 5090" d="M219.476,98.429c1.445.195,2.909.3,4.331.607a20.927,20.927,0,0,1,4.838,2.037,19.03,19.03,0,0,1,3.862,2.6,18.591,18.591,0,0,1,4.329,5.259,27.779,27.779,0,0,1,1.875,4.432,20.558,20.558,0,0,1,.873,4.8c.076.839.194,1.678.2,2.518.018,5.661.028,11.323,0,16.984q-.016,3.138-.22,6.275c-.087,1.338-.319,2.669-.525,4-.361,2.32-.678,4.651-1.155,6.948a43.928,43.928,0,0,1-1.434,5.083c-.675,2-1.447,3.969-2.226,5.933a64.639,64.639,0,0,1-10.114,16.944,70.777,70.777,0,0,1-17.5,15.463,69.183,69.183,0,0,1-14.409,6.846,59.769,59.769,0,0,1-10.137,2.588c-1.864.289-3.724.607-5.6.83a71.014,71.014,0,0,1-8.982.269c-1.476-.012-2.958-.034-4.426-.172-1.572-.148-3.134-.417-4.694-.671q-2.119-.344-4.223-.773c-1.083-.22-2.169-.451-3.227-.767-1.871-.558-3.742-1.131-5.576-1.8-1.669-.609-3.31-1.308-4.925-2.05a58.494,58.494,0,0,1-5.484-2.719,76.438,76.438,0,0,1-12.43-9.024,70.288,70.288,0,0,1-13.814-17c-1.05-1.818-1.985-3.7-2.934-5.578a48.213,48.213,0,0,1-2.964-7.355,46.583,46.583,0,0,1-1.69-6c-.2-1.133-.612-2.228-.814-3.361-.252-1.408-.331-2.847-.582-4.255a64.976,64.976,0,0,1-.5-7.771c-.039-.7-.02-1.394-.02-2.092,0-5.6-.011-11.2.007-16.8a24.242,24.242,0,0,1,.2-4.107,22.449,22.449,0,0,1,.757-3.172,21.294,21.294,0,0,1,12.989-13.687,14.248,14.248,0,0,1,4.87-1.134c.66-.016,1.317-.15,1.976-.23l.082.03.077-.04,4.993.06.042.142.035-.146.046-.041.189-.019c.126-.086.332-.151.361-.263a2.965,2.965,0,0,0,.026-.726c0-8.4.029-16.8-.022-25.2a24.653,24.653,0,0,1,.6-5.826,30.269,30.269,0,0,1,1.591-4.52,24,24,0,0,1,6.882-9.226,38.333,38.333,0,0,1,3.564-2.518,22.391,22.391,0,0,1,5.886-2.549,17.854,17.854,0,0,1,4.449-.764c13.28-.59,26.568-.117,39.852-.259l.342.007a37.254,37.254,0,0,1,8.207,1.913c.8.3,1.563.712,2.333,1.091a9.254,9.254,0,0,1,1.569.848q2.047,1.565,4.018,3.228a20.156,20.156,0,0,1,4.085,4.822,40.9,40.9,0,0,1,2.166,4.418,23.9,23.9,0,0,1,1.348,4.888,20.426,20.426,0,0,1,.432,4.473c.038,8.4.018,16.8.017,25.193v1.014h5.816c.136.3.318.267.522.071m-20.222-.209.073-.2c.007-.182.019-.365.019-.547q0-10.911-.01-21.823c0-1.3-.075-2.6-.147-3.905a5.014,5.014,0,0,0-.238-1.6,18.8,18.8,0,0,0-2.055-4.275,13.4,13.4,0,0,0-4.946-4.2,18.208,18.208,0,0,0-4.6-1.32l-.177-.012-1.109-.066h-.18c-.122-.006-.243-.017-.365-.017q-16.342,0-32.685.016a14.391,14.391,0,0,0-3.136.378,12.661,12.661,0,0,0-4.991,2.456,14.191,14.191,0,0,0-3.72,4.562,9.506,9.506,0,0,0-1.311,4.566q0,11.777-.022,23.554c0,.328-.073.655-.095.984a10.88,10.88,0,0,0-.037,1.267c.005.1.22.183.338.274h.179c.121.006.243.018.364.018q28.887,0,57.773-.005a10.766,10.766,0,0,0,1.076-.1M148.53,203.234a1.623,1.623,0,0,0,.5.371,64.066,64.066,0,0,0,7.5,1.974c.616.119,1.23.254,1.85.349a10.412,10.412,0,0,1,1.711.218c.582.2,1.218-.04,1.77.318.138.089.405-.029.614-.042a3.521,3.521,0,0,1,.587-.01c.712.077,1.42.214,2.133.247,1.246.059,2.494.08,3.742.077,1.916,0,3.838.043,5.747-.093,1.639-.117,3.255-.535,4.893-.682a46.41,46.41,0,0,0,6.765-1.322,63.877,63.877,0,0,0,14.355-5.445,68.819,68.819,0,0,0,23.081-19.385,74.791,74.791,0,0,0,6.766-10.849c.634-1.2,1.176-2.458,1.691-3.718.565-1.381,1.09-2.781,1.56-4.2.671-2.023,1.374-4.045,1.88-6.111s.828-4.19,1.157-6.3c.245-1.565.371-3.148.554-4.722a12.51,12.51,0,0,0,.059-1.743c-.031-1.374.256-2.753.265-4.13q.053-8.582,0-17.164c-.01-1.505-.234-3.008-.314-4.514a10.287,10.287,0,0,0-.86-3.321,23.412,23.412,0,0,0-3.412-5.594,5.242,5.242,0,0,0-.455-.386c-.245-.244-.488-.493-.708-.759-.127-.153-.173-.38-.313-.514a18.571,18.571,0,0,0-8.409-4.706,19.737,19.737,0,0,0-4.9-.676q-48.845-.007-97.69,0a19.658,19.658,0,0,0-5.539.839,19.2,19.2,0,0,0-9.1,5.881,15.359,15.359,0,0,0-2.465,3.512,28.84,28.84,0,0,0-1.475,3.742,11.881,11.881,0,0,0-.7,3.334c-.1,7.891-.125,15.783-.015,23.674.021,1.5.186,3.01.337,4.509.157,1.548.338,3.1.583,4.633a36.029,36.029,0,0,0,.783,3.7c.318,1.177.862,2.3,1.1,3.49.094.476.4.821.455,1.282a7.955,7.955,0,0,0,.339,1.687,60.035,60.035,0,0,0,3.224,7.678c.846,1.6,1.655,3.22,2.58,4.771.984,1.651,2.043,3.262,3.148,4.836a50.988,50.988,0,0,0,3.256,4.258c1.676,1.921,3.409,3.8,5.227,5.586a57.933,57.933,0,0,0,7.762,6.393,54.493,54.493,0,0,0,8.244,4.921c1.452.661,2.831,1.529,4.324,2.136,1.545.628,3.106,1.22,4.67,1.8a6.186,6.186,0,0,0,1.163.169M137.54,98.4V97.009q0-11.594.006-23.188a13.61,13.61,0,0,1,.249-3.3,16.254,16.254,0,0,1,1.853-4.735c2.967-4.817,7.286-7.533,13-7.572,11.228-.079,22.457-.038,33.686-.02a15.261,15.261,0,0,1,4.693.79,14.483,14.483,0,0,1,7.871,6.225,12.453,12.453,0,0,1,2,4.413,23.435,23.435,0,0,1,.55,4.466c-.034,7.7-.016,15.4-.016,23.1v1.1h9.584c.014-.324.037-.592.037-.861q0-12.918-.013-25.835a16.79,16.79,0,0,0-.293-3.066c-.233-1.231-.584-2.442-.932-3.648-.242-.837-.55-1.656-.855-2.473-.272-.73-.921-1.3-.882-2.176.007-.148-.265-.313-.415-.463a2.761,2.761,0,0,1-.265-.226c-.867-1.139-1.647-2.357-2.607-3.41a23.421,23.421,0,0,0-7.3-5.341,22.968,22.968,0,0,0-9.891-2.217c-12.141-.067-24.283-.02-36.425-.046a28.035,28.035,0,0,0-8.44,1.562,16.51,16.51,0,0,0-3.631,1.871,22.5,22.5,0,0,0-4.608,3.813,22.859,22.859,0,0,0-6.563,16.071q.018,12.69,0,25.379V98.4Z" transform="translate(-81.053 -37.939)" fill="#184486"/>
    <path id="Tracé_5091" data-name="Tracé 5091" d="M524.967,871.206a1.1,1.1,0,0,1-1.142-1.009,1.029,1.029,0,0,1,.952-1.128c.594-.082,1.2-.114,1.789-.2,1.329-.187,2.665-.341,3.98-.6,2.164-.434,4.348-.822,6.458-1.452,2.786-.831,5.525-1.831,8.253-2.842a64.872,64.872,0,0,0,9.876-4.779c2.107-1.217,4.119-2.609,6.109-4.013a73.449,73.449,0,0,0,9.395-7.943,1.747,1.747,0,0,1,.5-.393,1.03,1.03,0,0,1,1.259.206.992.992,0,0,1,.091,1.266,3.993,3.993,0,0,1-.6.678,81.828,81.828,0,0,1-12.043,9.738c-.975.641-1.952,1.283-2.963,1.862a87.575,87.575,0,0,1-9.562,4.838,86.052,86.052,0,0,1-12.636,4.135c-2.2.545-4.442.9-6.673,1.294-1,.176-2.022.232-3.034.342" transform="translate(-428.159 -692.091)" fill="#184486"/>
    <path id="Tracé_5092" data-name="Tracé 5092" d="M230.294,2.068c-1.54.226-3.083.428-4.618.684a25.916,25.916,0,0,0-7.726,2.6,33.372,33.372,0,0,0-13.518,12.775,36.331,36.331,0,0,0-3.778,9.957,24.553,24.553,0,0,0-.411,3.651c-.08.868-.116,1.74-.185,2.609a1.237,1.237,0,0,1-1,.9,1.407,1.407,0,0,1-1.008-1.033c.016-1.024.054-2.051.148-3.071.1-1.039.227-2.079.426-3.1.244-1.255.537-2.5.875-3.737a26.937,26.937,0,0,1,2.434-6.126,34.7,34.7,0,0,1,15.307-14.75,31.242,31.242,0,0,1,8.4-2.845c1.152-.191,2.32-.292,3.484-.4q1.486-.134,2.98-.178c.756-.021.981.17,1.027.717.076.914-.03,1.1-.863,1.27-.643.129-1.3.188-1.951.278l-.028-.2" transform="translate(-161.884 0)" fill="#184486"/>
    <path id="Tracé_5093" data-name="Tracé 5093" d="M820.735,769.908c.942-.006,1.3.779.728,1.723q-1.036,1.695-2.193,3.314c-.784,1.1-1.627,2.154-2.461,3.216a1.023,1.023,0,0,1-1.558.294.756.756,0,0,1-.338-.943,3.932,3.932,0,0,1,.455-.862c1.424-2.036,2.866-4.061,4.29-6.1.438-.626.421-.638,1.077-.642" transform="translate(-666.045 -629.304)" fill="#184486"/>
    <path id="Tracé_5094" data-name="Tracé 5094" d="M6.395,790.238a3.257,3.257,0,0,1-3.143,3.228c-1.869.036-3.246-1.53-3.252-3.7a3.2,3.2,0,0,1,3.112-2.9,3.135,3.135,0,0,1,3.282,3.369m-5.474-.051a2.43,2.43,0,0,0,2.207,2.184c.931,0,2.343-1.141,2.334-1.884a2.206,2.206,0,0,0-2.3-2.5,2.238,2.238,0,0,0-2.237,2.2" transform="translate(0 -643.167)" fill="#184486"/>
    <path id="Tracé_5095" data-name="Tracé 5095" d="M198.068,229.126c0-1.034-.016-2.068,0-3.1.017-.859.276-1.1,1.074-1.094.714.006,1.052.3,1.044,1.067-.022,2.182-.08,4.363-.14,6.544-.013.484-.494.819-1.084.813a1.062,1.062,0,0,1-.909-.945c-.014-1.094,0-2.189,0-3.284h.015" transform="translate(-161.882 -183.853)" fill="#184486"/>
    <path id="Tracé_5096" data-name="Tracé 5096" d="M13.741,227.828c-.967-.725-1.089-1.052-.833-2.057.272-1.069.563-2.134.821-3.206a1.218,1.218,0,0,1,2-.765c1.011.869,1.973,1.8,2.895,2.765A1.182,1.182,0,0,1,18,226.517c-1.423.441-2.848.877-4.261,1.312m-.143-.952c1.6-.5,3.039-.78,4.562-1.419-1.151-1.124-2.131-2.143-3.356-3.16L13.6,226.876" transform="translate(-10.456 -181.044)" fill="#184486"/>
    <path id="Tracé_5097" data-name="Tracé 5097" d="M961.549,393.794a2.812,2.812,0,0,1-2.906,2.9,3.239,3.239,0,0,1-2.807-3.091,3.049,3.049,0,0,1,2.971-2.778,2.663,2.663,0,0,1,2.742,2.973m-.931-.064a1.78,1.78,0,0,0-1.918-1.99,2.086,2.086,0,0,0-1.918,1.923,2.393,2.393,0,0,0,1.8,2.093,1.976,1.976,0,0,0,2.04-2.027" transform="translate(-781.276 -319.442)" fill="#184486"/>
    <path id="Tracé_5098" data-name="Tracé 5098" d="M874.264,254.91a.937.937,0,0,1-1.086.949,4.946,4.946,0,0,1-1.068-.208,19.469,19.469,0,0,1-2.784-.9c-.818-.386-.82-1.1-.161-1.732.746-.716,1.463-1.464,2.232-2.153.645-.578,1.609-.665,1.951.308a36.673,36.673,0,0,1,.916,3.737m-1.049.166c.149-1.372-.552-2.535-.712-3.778-.666-.065-.776.5-1.112.761a6.62,6.62,0,0,0-.977.947c-.279.323-.789.5-.747,1.068l3.549,1" transform="translate(-710.046 -204.698)" fill="#184486"/>
    <path id="Tracé_5099" data-name="Tracé 5099" d="M107.1,844.783c.313.642,1.237.882.949,1.834l-.709.274-1.166-1.1L104.448,847c-.952-1.227.468-1.515.7-2.229-.272-.609-1.246-.835-1.039-1.724,1.039-.62,1.384.436,2.017.787a10.45,10.45,0,0,1,1.126-.92c.174-.108.472-.018.714-.018.172.648.172.648-.862,1.886" transform="translate(-85.071 -688.931)" fill="#184486"/>
    <path id="Tracé_5100" data-name="Tracé 5100" d="M1002.141,290.841c.72.642.72.643.179,1.236-.2.222-.41.44-.6.641.226.629,1.107.81.937,1.67l-.767.33c-.121-.135-.218-.249-.32-.357-.71-.746-.709-.745-1.5-.039-.112.1-.239.271-.354.267a1.585,1.585,0,0,1-.807-.193c-.077-.052.008-.522.152-.682a9.264,9.264,0,0,1,1.138-.915c-.5-.4-.788-.672-1.109-.9s-.377-.584-.173-.77.584-.119.889-.16c.021,0,.047.035.072.053.329.247.67.7.983.683.336-.019.644-.487.971-.749a1.263,1.263,0,0,1,.3-.118" transform="translate(-816.399 -237.726)" fill="#184486"/>
    <path id="Tracé_5101" data-name="Tracé 5101" d="M755.629,330.252c-.2.2-.386.234-.522-.071.206-.211.382-.2.522.071" transform="translate(-617.206 -269.762)" fill="#8cc9ff"/>
    <path id="Tracé_5102" data-name="Tracé 5102" d="M589.352,46.677l-.342-.007.342.007" transform="translate(-481.443 -38.147)" fill="#8cc9ff"/>
    <path id="Tracé_5103" data-name="Tracé 5103" d="M213.252,330.588l-.077.04-.082-.03.159-.01" transform="translate(-174.177 -270.215)" fill="#8cc9ff"/>
    <path id="Tracé_5104" data-name="Tracé 5104" d="M242.17,330.564l-.189.019.189-.019" transform="translate(-197.789 -270.195)" fill="#8cc9ff"/>
    <path id="Tracé_5105" data-name="Tracé 5105" d="M241.382,330.894l-.035.146-.042-.142Z" transform="translate(-197.237 -270.465)" fill="#8cc9ff"/>
    <path id="Tracé_5106" data-name="Tracé 5106" d="M157.943,444.857a6.2,6.2,0,0,1-1.163-.169c-1.564-.579-3.125-1.171-4.67-1.8-1.493-.607-2.872-1.475-4.324-2.137a54.5,54.5,0,0,1-8.244-4.921,57.934,57.934,0,0,1-7.762-6.393c-1.818-1.786-3.551-3.665-5.227-5.586a50.978,50.978,0,0,1-3.256-4.258c-1.1-1.574-2.164-3.184-3.148-4.836-.925-1.552-1.734-3.173-2.58-4.771a60.026,60.026,0,0,1-3.223-7.678,7.969,7.969,0,0,1-.34-1.687c-.06-.461-.361-.806-.455-1.282-.235-1.189-.779-2.312-1.1-3.49a36.007,36.007,0,0,1-.783-3.7c-.245-1.536-.427-3.085-.583-4.633-.152-1.5-.316-3-.337-4.509-.11-7.891-.081-15.783.015-23.674a11.887,11.887,0,0,1,.7-3.334,28.877,28.877,0,0,1,1.475-3.742,15.35,15.35,0,0,1,2.465-3.512,19.2,19.2,0,0,1,9.1-5.881,19.659,19.659,0,0,1,5.54-.839q48.845,0,97.69,0a19.732,19.732,0,0,1,4.9.676,18.569,18.569,0,0,1,8.409,4.706c.14.134.186.361.313.514.22.266.463.515.708.759a5.239,5.239,0,0,1,.455.386,23.4,23.4,0,0,1,3.412,5.594,10.291,10.291,0,0,1,.861,3.321c.08,1.506.3,3.009.314,4.514q.057,8.582,0,17.164c-.009,1.378-.3,2.757-.265,4.131a12.51,12.51,0,0,1-.059,1.743c-.183,1.574-.309,3.158-.554,4.722-.33,2.109-.651,4.229-1.158,6.3s-1.209,4.088-1.88,6.111c-.469,1.416-.995,2.816-1.56,4.2-.515,1.26-1.057,2.515-1.691,3.718a74.776,74.776,0,0,1-6.766,10.849A68.823,68.823,0,0,1,210.1,440.817a63.873,63.873,0,0,1-14.355,5.445,46.381,46.381,0,0,1-6.765,1.322c-1.638.148-3.254.566-4.893.682-1.908.136-3.831.088-5.747.093-1.247,0-2.5-.018-3.741-.077-.713-.034-1.421-.17-2.133-.247a3.515,3.515,0,0,0-.586.01c-.209.013-.476.131-.614.042-.552-.357-1.187-.122-1.77-.317a10.417,10.417,0,0,0-1.711-.218c-.62-.095-1.234-.229-1.85-.349a64.077,64.077,0,0,1-7.5-1.974,1.623,1.623,0,0,1-.5-.371m22.673-26.507a18.879,18.879,0,0,0,7.335-.827,5.376,5.376,0,0,1,.616-.1,6.6,6.6,0,0,0,1.031-.28c.734-.3,1.452-.648,2.176-.979a18.335,18.335,0,0,0,2.177-1.021c1.388-.871,2.727-1.821,4.075-2.755a11.642,11.642,0,0,0,1.392-1.09c.27-.256.381-.682.657-.928a8.135,8.135,0,0,0,2-2.331c.525-1.022,1.271-1.928,1.894-2.9a12.576,12.576,0,0,0,.886-1.6c.368-.818.676-1.664,1.009-2.5A18.61,18.61,0,0,0,207,396.427c.1-.772.055-1.569.211-2.327a14.706,14.706,0,0,0-.016-5.155,43.215,43.215,0,0,0-.975-4.573,27.435,27.435,0,0,0-1.128-3.361,9.15,9.15,0,0,0-.993-1.561,16.662,16.662,0,0,0-1.689-2.617c-.541-.556-.934-1.253-1.452-1.835a11.418,11.418,0,0,1-1.92-2.285.557.557,0,0,0-.209-.171c-.35-.221-.712-.427-1.054-.659-1.2-.813-2.362-1.682-3.593-2.443a38.6,38.6,0,0,0-5.431-2.431c-.081-.034-.167-.129-.232-.115-1.158.252-2.113-.654-3.273-.539a13.68,13.68,0,0,1-2.039-.251,28.156,28.156,0,0,0-5.169.151,37.133,37.133,0,0,0-5.533,1.154,7.185,7.185,0,0,0-1.272.41c-.853.428-1.674.918-2.511,1.378-.816.449-1.671.839-2.442,1.354-.648.432-1.193,1.018-1.8,1.517a27.146,27.146,0,0,0-6.4,7.711,21.753,21.753,0,0,0-2.292,6.195,10.831,10.831,0,0,0-.677,3.151,10.214,10.214,0,0,1-.014,1.366,27.17,27.17,0,0,0,1.469,10.616c1.255,3.552,3.491,6.471,5.679,9.44,1.115.688,1.893,1.767,3.033,2.464a49.8,49.8,0,0,0,4.8,2.911,16.575,16.575,0,0,0,3.86,1.525c.758.144,1.512.3,2.266.468a13.947,13.947,0,0,0,1.887.415c.968.071,1.946.019,2.527.019" transform="translate(-90.467 -279.561)" fill="#ffb83b"/>
    <path id="Tracé_5107" data-name="Tracé 5107" d="M266.313,107.807h-9.6v-1.181q0-12.69,0-25.379a22.859,22.859,0,0,1,6.563-16.071,22.5,22.5,0,0,1,4.608-3.813,16.512,16.512,0,0,1,3.631-1.871,28.036,28.036,0,0,1,8.44-1.562c12.142.026,24.284-.021,36.425.046a22.968,22.968,0,0,1,9.891,2.217,23.42,23.42,0,0,1,7.3,5.341c.96,1.053,1.741,2.271,2.607,3.41a2.76,2.76,0,0,0,.265.226c.15.15.422.315.415.463-.039.874.609,1.446.882,2.176.3.817.614,1.636.855,2.473.348,1.206.7,2.417.932,3.648a16.793,16.793,0,0,1,.293,3.066q.034,12.918.013,25.835c0,.268-.023.537-.037.861H330.2v-1.1c0-7.7-.018-15.4.016-23.1a23.431,23.431,0,0,0-.55-4.466,12.453,12.453,0,0,0-2-4.413,14.483,14.483,0,0,0-7.871-6.225,15.261,15.261,0,0,0-4.693-.79c-11.229-.018-22.458-.058-33.686.02-5.716.04-10.034,2.756-13,7.572a16.253,16.253,0,0,0-1.853,4.735,13.608,13.608,0,0,0-.249,3.3q-.02,11.594-.006,23.188v1.387" transform="translate(-209.827 -47.35)" fill="#8cc9ff"/>
    <path id="Tracé_5108" data-name="Tracé 5108" d="M581.269,122.649l-.177-.012.177.012" transform="translate(-474.971 -100.241)" fill="#8cc9ff"/>
    <path id="Tracé_5109" data-name="Tracé 5109" d="M647.236,329.188l.073-.2-.073.2" transform="translate(-529.035 -268.907)" fill="#8cc9ff"/>
    <path id="Tracé_5110" data-name="Tracé 5110" d="M322.021,330.579l.179,0-.179,0" transform="translate(-263.212 -270.207)" fill="#8cc9ff"/>
    <path id="Tracé_5111" data-name="Tracé 5111" d="M574.214,122.275h0" transform="translate(-469.202 -99.945)" fill="#8cc9ff"/>
    <path id="Tracé_5112" data-name="Tracé 5112" d="M379.231,525.9c-.581,0-1.558.052-2.526-.019a13.965,13.965,0,0,1-1.887-.415c-.754-.164-1.508-.325-2.266-.469a16.569,16.569,0,0,1-3.86-1.525,49.826,49.826,0,0,1-4.8-2.911c-1.141-.7-1.918-1.776-3.033-2.464-2.188-2.968-4.424-5.888-5.679-9.439a27.171,27.171,0,0,1-1.469-10.616,10.219,10.219,0,0,0,.014-1.366,10.837,10.837,0,0,1,.677-3.151,21.758,21.758,0,0,1,2.293-6.195,27.145,27.145,0,0,1,6.4-7.711c.606-.5,1.151-1.084,1.8-1.517.772-.515,1.626-.905,2.442-1.354.837-.46,1.658-.95,2.511-1.378a7.165,7.165,0,0,1,1.272-.41,37.124,37.124,0,0,1,5.533-1.154,28.156,28.156,0,0,1,5.169-.151,13.7,13.7,0,0,0,2.039.251c1.159-.115,2.115.791,3.273.539.066-.014.152.081.232.115a38.6,38.6,0,0,1,5.431,2.431c1.23.761,2.394,1.63,3.593,2.443.343.233.7.438,1.054.659a.556.556,0,0,1,.209.171,11.416,11.416,0,0,0,1.92,2.285c.518.582.911,1.279,1.452,1.835A16.673,16.673,0,0,1,402.711,487a9.156,9.156,0,0,1,.993,1.561,27.437,27.437,0,0,1,1.128,3.361,43.242,43.242,0,0,1,.975,4.573,14.706,14.706,0,0,1,.016,5.155c-.157.758-.114,1.554-.211,2.327a18.632,18.632,0,0,1-1.132,4.612c-.333.834-.641,1.679-1.01,2.5a12.606,12.606,0,0,1-.886,1.6c-.623.974-1.37,1.88-1.894,2.9a8.132,8.132,0,0,1-2,2.331c-.276.245-.387.672-.657.928a11.63,11.63,0,0,1-1.392,1.09c-1.348.934-2.687,1.883-4.075,2.755a18.415,18.415,0,0,1-2.178,1.021c-.723.331-1.442.674-2.176.978a6.587,6.587,0,0,1-1.031.28,5.4,5.4,0,0,0-.616.1,18.876,18.876,0,0,1-7.335.827m24.68-25.2c0-.057.008-.115.012-.172q0-.739,0-1.478a.127.127,0,0,0-.01-.169c-.2-1.513-.3-3.046-.624-4.534a22.233,22.233,0,0,0-1.718-4.882,24.059,24.059,0,0,0-4.241-6.262,24.457,24.457,0,0,0-10.571-6.464,26.037,26.037,0,0,0-7.192-1.048,25.107,25.107,0,0,0-3.671.36,20.819,20.819,0,0,0-8.131,2.866,24.549,24.549,0,0,0-9.618,10.289,27.622,27.622,0,0,0-1.843,5.2,19.034,19.034,0,0,0-.56,5.714,18.16,18.16,0,0,0,.222,3.508,27.44,27.44,0,0,0,2.339,6.95,24.165,24.165,0,0,0,12.973,11.667,20.378,20.378,0,0,0,7.519,1.586,26.776,26.776,0,0,0,3.18.022,27.229,27.229,0,0,0,4.542-.935,24.476,24.476,0,0,0,11.815-7.753,22.905,22.905,0,0,0,3.906-6.616,28.581,28.581,0,0,0,1.162-4.1c.262-1.229.343-2.5.5-3.748" transform="translate(-289.082 -387.107)" fill="#184486"/>
    <path id="Tracé_5113" data-name="Tracé 5113" d="M628.542,612.174a.989.989,0,0,1-.07-.122c0-.006.039-.031.06-.047a.128.128,0,0,1,.01.169" transform="translate(-513.698 -500.238)" fill="#8cc9ff"/>
    <path id="Tracé_5114" data-name="Tracé 5114" d="M628.533,621.193a.862.862,0,0,1-.054-.128c0-.008.042-.029.065-.044l-.012.172" transform="translate(-513.704 -507.608)" fill="#8cc9ff"/>
    <path id="Tracé_5115" data-name="Tracé 5115" d="M460.741,574.286a2.225,2.225,0,0,1-1.822-2.551c.089-.86.254-1.713.323-2.574.1-1.231.128-2.467.208-3.7.113-1.74.243-3.479.372-5.218a4.435,4.435,0,0,1,.111-.431,1.707,1.707,0,0,0-.5-1.778,6.892,6.892,0,0,1-2.34-5.464,7.188,7.188,0,0,1,5.426-6.614c3.685-.724,6.22.373,7.963,3.1a7.147,7.147,0,0,1,.887,5.075,7.038,7.038,0,0,1-2.769,4.558c.061.992.117,2.013.189,3.032.038.538.107,1.075.158,1.612.123,1.282.251,2.564.362,3.848.073.838.111,1.678.178,2.517.062.778.122,1.556.215,2.33a2.011,2.011,0,0,1-1.961,2.252c-1.55.037-3.1.011-4.651.013-.73,0-1.459.006-2.189.009a.117.117,0,0,0-.158-.016m6.837-2.1a4.166,4.166,0,0,0,.022-.5c-.1-1.142-.2-2.284-.307-3.426-.005-.06-.012-.121-.019-.182-.114-.982-.258-1.961-.335-2.946-.129-1.627-.206-3.259-.323-4.887-.054-.75-.153-1.5-.231-2.246-.039-.374.117-.565.464-.768a4.311,4.311,0,0,0,2.455-4.14,7.155,7.155,0,0,0-.011-.911,6.1,6.1,0,0,0-.424-1.639,4.844,4.844,0,0,0-3.488-2.635,5.153,5.153,0,0,0-6.127,4.258,4.943,4.943,0,0,0,2.189,4.8,1.69,1.69,0,0,1,.729,1.843c-.1,1.137-.261,2.269-.349,3.407-.094,1.2-.109,2.415-.2,3.619-.078.989-.274,1.969-.326,2.958-.058,1.11-.013,2.227-.013,3.392Z" transform="translate(-373.611 -446.074)" fill="#184486"/>
    <path id="Tracé_5116" data-name="Tracé 5116" d="M477.1,701.952a.117.117,0,0,1,.158.016l-.158-.016" transform="translate(-389.968 -573.74)" fill="#8cc9ff"/>
    <path id="Tracé_5117" data-name="Tracé 5117" d="M477.138,581.4h-6.3c0-1.166-.045-2.282.013-3.392.052-.989.248-1.969.326-2.958.1-1.2.111-2.415.2-3.619.088-1.138.248-2.27.349-3.407a1.69,1.69,0,0,0-.729-1.843,4.942,4.942,0,0,1-2.189-4.8,5.153,5.153,0,0,1,6.127-4.258,4.844,4.844,0,0,1,3.488,2.635,6.1,6.1,0,0,1,.424,1.639,7.155,7.155,0,0,1,.011.911,4.311,4.311,0,0,1-2.455,4.14c-.347.2-.5.394-.464.768.078.748.177,1.5.231,2.246.117,1.628.194,3.26.323,4.887.078.985.221,1.964.335,2.946.007.06.013.121.019.182.1,1.142.209,2.284.307,3.426a4.167,4.167,0,0,1-.022.5" transform="translate(-383.171 -455.29)" fill="#8cc9ff"/>
  </g>
</svg>
