<svg id="Groupe_10583" data-name="Groupe 10583" xmlns="http://www.w3.org/2000/svg" xmlns:xlink="http://www.w3.org/1999/xlink" width="153.853" height="35" viewBox="0 0 153.853 35">
  <defs>
    <clipPath id="clip-path">
      <rect id="Rectangle_5019" data-name="Rectangle 5019" width="153.853" height="35" fill="none"/>
    </clipPath>
  </defs>
  <line id="Ligne_48" data-name="Ligne 48" x2="129.292" transform="translate(23.294 22.593)" fill="none" stroke="#f15a24" stroke-miterlimit="10" stroke-width="1.15"/>
  <g id="Groupe_10582" data-name="Groupe 10582">
    <g id="Groupe_10581" data-name="Groupe 10581" clip-path="url(#clip-path)">
      <path id="Tracé_5118" data-name="Tracé 5118" d="M11.977,63.54A11.977,11.977,0,1,1,0,75.517,11.977,11.977,0,0,1,11.977,63.54" transform="translate(0 -53.112)" fill="#034aa6"/>
      <path id="Tracé_5119" data-name="Tracé 5119" d="M52.9,112.38a4.055,4.055,0,1,1-4.055,4.055A4.055,4.055,0,0,1,52.9,112.38" transform="translate(-40.825 -93.937)" fill="#fff"/>
      <path id="Tracé_5120" data-name="Tracé 5120" d="M22.319,113.53a13.609,13.609,0,0,1-1.7,2.452A13.316,13.316,0,0,1,19.3,117.3c.43.448.875.95,1.319,1.508a22.027,22.027,0,0,1,1.7,2.452c-1.017-.6-2.094-1.282-3.207-2.074-.889-.633-1.705-1.267-2.452-1.886.819-.622,1.7-1.254,2.641-1.886,1.039-.7,2.048-1.323,3.018-1.886" transform="translate(-13.926 -94.898)" fill="#fff"/>
      <path id="Tracé_5121" data-name="Tracé 5121" d="M94.82,113.53a13.61,13.61,0,0,0,1.7,2.452,13.314,13.314,0,0,0,1.319,1.319c-.43.448-.875.95-1.319,1.508a22.028,22.028,0,0,0-1.7,2.452c1.017-.6,2.094-1.282,3.207-2.074.889-.633,1.705-1.267,2.452-1.886-.819-.622-1.7-1.254-2.641-1.886-1.039-.7-2.048-1.323-3.018-1.886" transform="translate(-79.259 -94.898)" fill="#fff"/>
      <path id="Tracé_5122" data-name="Tracé 5122" d="M170.2,58.505a2.162,2.162,0,0,1-2.188,1.177,1.765,1.765,0,0,1-1.969-1.559h-.054a3.384,3.384,0,0,1-3.146,1.559c-2.27,0-3.42-1.341-3.42-2.982a2.76,2.76,0,0,1,2.352-2.9c.711-.192,2.023-.52,2.762-.793,1.013-.328,1.423-.492,1.423-1.177V50.218c0-2.133-.9-2.435-2.051-2.435-1.613,0-2.023.546-2.023.931,0,.546.766.574.766,1.5a1.252,1.252,0,0,1-1.341,1.231,1.3,1.3,0,0,1-1.285-1.341c0-1.531,1.969-2.6,3.857-2.6,2.572,0,4.459,1.313,4.459,3.857V58.4c0,.438.11.793.546.793a1.191,1.191,0,0,0,1.013-.739c.028-.136.082-.164.192-.136s.136.082.11.192Zm-4.241-1.367v-4.4c-2.516,1.039-3.748,1.177-3.885,3.338,0,.546-.028,1.367.028,1.833.082.629.274,1.449,1.449,1.449a2.483,2.483,0,0,0,2.408-2.216" transform="translate(-133.257 -39.713)" fill="#034aa6"/>
      <path id="Tracé_5123" data-name="Tracé 5123" d="M233.28,19.641h-5.471c-.164,0-.218-.028-.218-.136s.054-.136.218-.136h1.177c.218,0,.246-.274.246-1.067V8.617c0-.082-.054-.164-.274-.164h-.848c-.218,0-.274-.054-.274-.164s.082-.164.274-.164h.848c.218,0,.274-.11.274-.192V4.323c0-2.517,1.559-4.323,3.994-4.323,1.5,0,3.118.957,3.118,2.38A1.323,1.323,0,0,1,235,3.775a1.3,1.3,0,0,1-1.367-1.285c0-.957.711-1.013.711-1.531,0-.492-.656-.684-1.313-.684a1.316,1.316,0,0,0-1.449,1.5V7.933c0,.082.054.192.274.192h1.969c.218,0,.274.054.274.164s-.082.164-.274.164h-1.969c-.218,0-.274.082-.274.164V18.3c0,.793.028,1.067.246,1.067h1.449c.192,0,.246.028.246.136s-.054.136-.246.136" transform="translate(-190.24)" fill="#034aa6"/>
      <path id="Tracé_5124" data-name="Tracé 5124" d="M277.986,59.362h-5.5c-.164,0-.218-.028-.218-.136s.054-.136.218-.136h1.177c.218,0,.246-.274.246-1.067V49.159c0-.793-.028-1.039-.246-1.039h-1.177c-.164,0-.218-.028-.218-.136s.054-.136.218-.136h3.5c.192,0,.218.054.218.136v1.149h.054a3.032,3.032,0,0,1,2.654-1.613,2.063,2.063,0,0,1,2.27,1.941,1.386,1.386,0,0,1-1.423,1.449A1.342,1.342,0,0,1,278.4,49.6c0-.766.629-.875.629-1.313a.475.475,0,0,0-.52-.464,2.469,2.469,0,0,0-2.243,2.325v7.879c0,.793.028,1.067.246,1.067h1.477c.164,0,.218.028.218.136s-.054.136-.218.136Z" transform="translate(-227.587 -39.721)" fill="#034aa6"/>
      <path id="Tracé_5125" data-name="Tracé 5125" d="M335.516,22.149h-5.2c-.164,0-.218-.028-.218-.136s.054-.136.218-.136h1.177c.218,0,.246-.274.246-1.067V11.946c0-.793-.028-1.039-.246-1.039h-1.177c-.164,0-.218-.028-.218-.136s.054-.136.218-.136h3.556c.192,0,.218.054.218.136V20.809c0,.793.028,1.067.246,1.067h1.177c.164,0,.218.028.218.136s-.054.136-.218.136m-2.6-16.194A1.424,1.424,0,0,1,331.469,4.5,1.471,1.471,0,0,1,332.918,3a1.433,1.433,0,0,1,1.423,1.5,1.4,1.4,0,0,1-1.423,1.449" transform="translate(-275.927 -2.508)" fill="#034aa6"/>
      <path id="Tracé_5126" data-name="Tracé 5126" d="M370.77,53.628c0-2.846,1.285-6.128,5.444-6.128,1.941,0,3.995,1.013,3.995,2.818a1.4,1.4,0,0,1-1.395,1.477,1.351,1.351,0,0,1-1.423-1.367c0-1.039.711-1.067.711-1.669,0-.656-.821-.985-1.859-.985-1.915,0-2.3,1.2-2.49,3.282a28.492,28.492,0,0,0-.028,5.061c.164,1.531.875,3.228,2.846,3.228,1.805,0,3.528-1.5,3.528-4.049,0-.328.028-.438.246-.438.136,0,.192.11.192.3,0,1.969-1.149,4.513-4.267,4.513-3.693,0-5.5-2.626-5.5-6.046Z" transform="translate(-309.922 -39.705)" fill="#034aa6"/>
      <path id="Tracé_5127" data-name="Tracé 5127" d="M449.887,58.505a2.162,2.162,0,0,1-2.188,1.177,1.764,1.764,0,0,1-1.969-1.559h-.054a3.384,3.384,0,0,1-3.146,1.559c-2.27,0-3.42-1.341-3.42-2.982a2.76,2.76,0,0,1,2.352-2.9c.711-.192,2.023-.52,2.764-.793,1.013-.328,1.423-.492,1.423-1.177V50.218c0-2.133-.9-2.435-2.051-2.435-1.613,0-2.023.546-2.023.931,0,.546.766.574.766,1.5A1.252,1.252,0,0,1,441,51.449a1.3,1.3,0,0,1-1.285-1.341c0-1.531,1.969-2.6,3.857-2.6,2.572,0,4.459,1.313,4.459,3.857V58.4c0,.438.11.793.546.793a1.191,1.191,0,0,0,1.013-.739c.028-.136.082-.164.192-.136s.136.082.11.192Zm-4.241-1.367v-4.4c-2.516,1.039-3.748,1.177-3.884,3.338,0,.546-.028,1.367.028,1.833.082.629.274,1.449,1.449,1.449a2.483,2.483,0,0,0,2.407-2.216" transform="translate(-367.047 -39.713)" fill="#034aa6"/>
      <path id="Tracé_5128" data-name="Tracé 5128" d="M514.237,21.649a3.281,3.281,0,0,1-2.954-1.587h-.054v1.121c0,.082-.028.136-.218.136h-3.5c-.164,0-.218-.028-.218-.136s.054-.136.218-.136h1.177c.218,0,.246-.274.246-1.039V3.349c0-.793-.028-1.067-.246-1.067h-1.177c-.164,0-.218-.028-.218-.136s.054-.136.218-.136h3.556c.192,0,.218.054.218.136v8.89h.028a3.218,3.218,0,0,1,2.926-1.559c2.654,0,5.143,2.079,5.143,6.072s-2.462,6.1-5.143,6.1m2.215-8.316c-.192-2.3-.684-3.556-2.572-3.556a2.628,2.628,0,0,0-2.6,2.243v7.085a2.629,2.629,0,0,0,2.6,2.243c1.887,0,2.38-1.259,2.572-3.556a26.941,26.941,0,0,0,0-4.459" transform="translate(-424.038 -1.68)" fill="#034aa6"/>
      <path id="Tracé_5129" data-name="Tracé 5129" d="M596.678,59.674c-3.528,0-5.718-2.764-5.718-6.046s2.051-6.128,5.69-6.128,5.69,2.762,5.69,6.046S600.316,59.674,596.678,59.674Zm2.708-8.617c-.164-1.641-.547-3.282-2.736-3.282-2.325,0-2.572,1.641-2.736,3.338a27.864,27.864,0,0,0,.028,5.005c.136,1.641.547,3.282,2.736,3.282,2.326,0,2.572-1.641,2.708-3.338a25.513,25.513,0,0,0,0-5.005" transform="translate(-493.977 -39.705)" fill="#034aa6"/>
      <path id="Tracé_5130" data-name="Tracé 5130" d="M678.412,61.026h-3.5c-.192,0-.246-.054-.246-.136V59.795h-.028a3.255,3.255,0,0,1-3.064,1.559,3.951,3.951,0,0,1-4.131-4.241V50.849c0-.793-.028-1.067-.246-1.067h-1.177c-.164,0-.218-.028-.218-.136s.054-.136.218-.136h3.556c.192,0,.218.054.218.136v9c0,2.161,1.477,2.408,2.27,2.408a2.562,2.562,0,0,0,2.544-2.27V50.851c0-.793-.028-1.067-.246-1.067h-1.149c-.164,0-.218-.028-.218-.136s.054-.136.218-.136h3.556c.192,0,.218.054.218.136V59.714c0,.766.028,1.039.246,1.039h1.177c.164,0,.218.028.218.136s-.054.136-.218.136Z" transform="translate(-556.535 -41.385)" fill="#034aa6"/>
      <path id="Tracé_5131" data-name="Tracé 5131" d="M754.366,59.362h-5.5c-.164,0-.218-.028-.218-.136s.054-.136.218-.136h1.177c.218,0,.246-.274.246-1.067V49.159c0-.793-.028-1.039-.246-1.039h-1.177c-.164,0-.218-.028-.218-.136s.054-.136.218-.136h3.5c.192,0,.218.054.218.136v1.149h.054A3.032,3.032,0,0,1,755.3,47.52a2.063,2.063,0,0,1,2.27,1.941,1.386,1.386,0,0,1-1.423,1.449,1.342,1.342,0,0,1-1.367-1.313c0-.766.629-.875.629-1.313a.475.475,0,0,0-.52-.464,2.469,2.469,0,0,0-2.243,2.325v7.879c0,.793.028,1.067.246,1.067h1.477c.164,0,.218.028.218.136s-.054.136-.218.136Z" transform="translate(-625.788 -39.721)" fill="#034aa6"/>
      <path id="Tracé_5132" data-name="Tracé 5132" d="M813.765,59.682a7.672,7.672,0,0,1-2.736-.464c-.328-.136-.738-.246-.738.028V59.3c0,.164-.054.246-.164.246s-.136-.054-.136-.246V55.223c0-.164.028-.246.136-.246s.164.054.164.246v.41a3.505,3.505,0,0,0,3.364,3.775c1.641,0,2.352-.821,2.352-1.887,0-3.338-5.99-2.654-5.99-6.729a3.31,3.31,0,0,1,3.5-3.282,5.147,5.147,0,0,1,2.079.438c.382.136.766.3.766,0v-.082c0-.164.054-.218.164-.218s.136.054.136.218v3.666c0,.164-.054.218-.136.218-.136,0-.164-.054-.164-.218v-.274c0-2.243-1.341-3.474-2.844-3.474a1.67,1.67,0,0,0-1.859,1.723c0,3.282,6.072,2.626,6.072,6.729a3.662,3.662,0,0,1-3.967,3.446Z" transform="translate(-677.062 -39.713)" fill="#034aa6"/>
      <path id="Tracé_5133" data-name="Tracé 5133" d="M866.83,53.628c0-3.146,1.559-6.128,5.2-6.128,2.654,0,4.787,1.587,4.787,4.185,0,.821-.246,1.067-.793,1.067h-6.128c-.082,0-.192,0-.192.164a30.9,30.9,0,0,0,.082,3.2c.164,1.531.821,3.228,2.982,3.228s3.748-1.531,3.748-4.049c0-.328.028-.438.246-.438.136,0,.192.11.192.3a4.229,4.229,0,0,1-4.459,4.513c-3.857,0-5.662-2.6-5.662-6.046ZM872,47.774c-1.613,0-2.079,1.449-2.216,3.338-.028.438-.054.848-.054,1.149,0,.192.082.164.164.164h4.077a.213.213,0,0,0,.218-.218,12.508,12.508,0,0,0-.218-2.408c-.218-1.177-.793-2.023-1.969-2.023Z" transform="translate(-724.574 -39.705)" fill="#034aa6"/>
      <path id="Tracé_5134" data-name="Tracé 5134" d="M158.811,154.95h.4l3.361,9.4h-.484l-1.168-3.361h-3.83l-1.182,3.361h-.456Zm-1.58,5.639h3.546l-.655-1.879c-.4-1.139-.74-2.107-1.082-3.276h-.057c-.341,1.168-.684,2.137-1.083,3.276Z" transform="translate(-129.939 -129.521)" fill="#034aa6"/>
      <path id="Tracé_5135" data-name="Tracé 5135" d="M206.47,162.227l.313-.313a3.692,3.692,0,0,0,2.819,1.31c1.51,0,2.478-.826,2.478-2.022s-.8-1.653-1.738-2.079l-1.452-.655a2.569,2.569,0,0,1-1.909-2.307c0-1.4,1.139-2.25,2.649-2.25a3.486,3.486,0,0,1,2.563,1.111l-.286.313a3,3,0,0,0-2.278-1c-1.31,0-2.193.712-2.193,1.794,0,1.168.983,1.61,1.653,1.909l1.452.655c1.039.469,1.994,1.026,1.994,2.478s-1.168,2.478-2.934,2.478A3.994,3.994,0,0,1,206.47,162.227Z" transform="translate(-172.586 -128.652)" fill="#034aa6"/>
      <path id="Tracé_5136" data-name="Tracé 5136" d="M252.98,162.227l.313-.313a3.692,3.692,0,0,0,2.819,1.31c1.51,0,2.478-.826,2.478-2.022s-.8-1.653-1.738-2.079l-1.452-.655a2.568,2.568,0,0,1-1.909-2.307c0-1.4,1.139-2.25,2.649-2.25a3.486,3.486,0,0,1,2.563,1.111l-.286.313a3,3,0,0,0-2.278-1c-1.31,0-2.193.712-2.193,1.794,0,1.168.983,1.61,1.653,1.909l1.452.655c1.039.469,1.994,1.026,1.994,2.478s-1.168,2.478-2.934,2.478A3.994,3.994,0,0,1,252.98,162.227Z" transform="translate(-211.463 -128.652)" fill="#034aa6"/>
      <path id="Tracé_5137" data-name="Tracé 5137" d="M304.88,154.95h5.042v.4h-4.585v3.788h3.845v.4h-3.845v4.415h4.728v.4H304.88Z" transform="translate(-254.846 -129.521)" fill="#034aa6"/>
      <path id="Tracé_5138" data-name="Tracé 5138" d="M348.708,155.349H345.66v-.4h6.551v.4h-3.048v9h-.456Z" transform="translate(-288.933 -129.521)" fill="#034aa6"/>
      <path id="Tracé_5139" data-name="Tracé 5139" d="M419.42,154.95h.74l2.022,5.7q.384,1.068.77,2.137h.057c.256-.712.484-1.424.74-2.137l2.022-5.7h.74v9.4h-.456V157.8c0-.74.028-1.68.057-2.45h-.057l-.725,2.079-2.122,5.867h-.484l-2.137-5.867-.74-2.079h-.057c.028.77.057,1.708.057,2.45v6.551h-.427Z" transform="translate(-350.588 -129.521)" fill="#034aa6"/>
      <path id="Tracé_5140" data-name="Tracé 5140" d="M478.151,154.95h.4l3.361,9.4h-.484l-1.168-3.361h-3.83l-1.182,3.361h-.456Zm-1.581,5.639h3.547l-.655-1.879c-.4-1.139-.74-2.107-1.082-3.276h-.057c-.341,1.168-.684,2.137-1.083,3.276Z" transform="translate(-396.872 -129.521)" fill="#034aa6"/>
      <path id="Tracé_5141" data-name="Tracé 5141" d="M530.32,154.95h.484l4.159,6.893c.371.627.74,1.254,1.081,1.851h.057c-.028-.911-.057-1.766-.057-2.649v-6.1h.427v9.4h-.484l-4.159-6.893c-.371-.627-.74-1.254-1.081-1.851h-.057c.028.883.057,1.68.057,2.563v6.18h-.427Z" transform="translate(-443.289 -129.521)" fill="#034aa6"/>
      <path id="Tracé_5142" data-name="Tracé 5142" d="M583.321,154.95h.4l3.361,9.4H586.6l-1.169-3.361H581.6l-1.182,3.361h-.456Zm-1.58,5.639h3.546l-.655-1.879c-.4-1.139-.74-2.107-1.082-3.276h-.057c-.341,1.168-.684,2.137-1.083,3.276Z" transform="translate(-484.782 -129.521)" fill="#034aa6"/>
      <path id="Tracé_5143" data-name="Tracé 5143" d="M630.81,158.761c0-2.962,1.623-4.841,4.1-4.841a3.3,3.3,0,0,1,2.506,1.111l-.285.313a2.834,2.834,0,0,0-2.222-1c-2.25,0-3.617,1.708-3.617,4.415s1.31,4.472,3.5,4.472a3.256,3.256,0,0,0,2.25-.77v-3.1h-2.335v-.4H637.5v3.645a3.611,3.611,0,0,1-2.734,1.054C632.376,163.66,630.81,161.723,630.81,158.761Z" transform="translate(-527.287 -128.66)" fill="#034aa6"/>
      <path id="Tracé_5144" data-name="Tracé 5144" d="M689.3,154.95h5.042v.4h-4.585v3.788H693.6v.4h-3.845v4.415h4.728v.4H689.3Z" transform="translate(-576.178 -129.521)" fill="#034aa6"/>
      <path id="Tracé_5145" data-name="Tracé 5145" d="M736.16,154.95h.74l2.022,5.7q.384,1.068.77,2.137h.057c.256-.712.484-1.424.74-2.137l2.022-5.7h.74v9.4h-.456V157.8c0-.74.028-1.68.058-2.45h-.058l-.725,2.079-2.122,5.867h-.484l-2.137-5.867-.74-2.079h-.057c.028.77.057,1.708.057,2.45v6.551h-.427Z" transform="translate(-615.348 -129.521)" fill="#034aa6"/>
      <path id="Tracé_5146" data-name="Tracé 5146" d="M799.33,154.95h5.042v.4h-4.585v3.788h3.845v.4h-3.845v4.415h4.728v.4H799.33Z" transform="translate(-668.151 -129.521)" fill="#034aa6"/>
      <path id="Tracé_5147" data-name="Tracé 5147" d="M846.19,154.95h.484l4.159,6.893c.371.627.74,1.254,1.081,1.851h.057c-.028-.911-.057-1.766-.057-2.649v-6.1h.427v9.4h-.484l-4.159-6.893c-.371-.627-.74-1.254-1.082-1.851h-.057c.028.883.057,1.68.057,2.563v6.18h-.427Z" transform="translate(-707.321 -129.521)" fill="#034aa6"/>
      <path id="Tracé_5148" data-name="Tracé 5148" d="M900.618,155.349H897.57v-.4h6.551v.4h-3.047v9h-.456Z" transform="translate(-750.269 -129.521)" fill="#034aa6"/>
    </g>
  </g>
</svg>
