<svg xmlns="http://www.w3.org/2000/svg" xmlns:xlink="http://www.w3.org/1999/xlink" width="321.373" height="182.088" viewBox="0 0 321.373 182.088">
  <defs>
    <clipPath id="clip-path">
      <rect id="Rectangle_4990" data-name="Rectangle 4990" width="321.373" height="182.088" fill="none"/>
    </clipPath>
  </defs>
  <g id="Groupe_10498" data-name="Groupe 10498" clip-path="url(#clip-path)">
    <path id="Tracé_4978" data-name="Tracé 4978" d="M486.864,181.173l-6.247,0a3.942,3.942,0,0,0-1.324-.58c-2.467-.057-4.936-.027-7.4-.027h-7.546l1.055-2.689q.027-.2.054-.39.007-34.454.013-68.908l-.063-.395c-.91-3.593-3.62-4.264-6.8-4.246-5.028.027-10.056-.039-15.083.037-1.3.02-1.791-.193-1.756-1.659.111-4.638.09-9.282.009-13.922-.023-1.293.311-1.659,1.625-1.644,6.3.071,12.6.035,18.9.03,2.9,0,3.186-.3,3.188-3.247q0-5.553,0-11.105l-.073-.4c-.417-1.266-1.448-1.315-2.536-1.313q-8.7.014-17.4,0c-1.262,0-3.087.434-3.643-.206-.672-.775-.27-2.482-.331-3.785-.005-.11,0-.221,0-.332a2.4,2.4,0,0,0-1.707-2.486,8.955,8.955,0,0,0-2.845-.5q-47.489-.037-94.978-.023c-.662,0-1.324-.032-1.985-.049l-.242-.218a8.073,8.073,0,0,0-8.76-7.314,7.8,7.8,0,0,0-7.2,6.52c-.128.842-.422,1.09-1.241,1.078-4.019-.057-8.039-.062-12.059-.086a5.075,5.075,0,0,1,.72-1.4c6.549-6.424,11.449-14.059,16.121-21.863,4.328-7.231,8.664-14.46,14.808-20.365a53.268,53.268,0,0,1,11.592-8.4,85.491,85.491,0,0,1,23.2-8.372c5.19-1.1,10.471-1.829,15.741-2.485A64.341,64.341,0,0,1,414.12,1.6a74.785,74.785,0,0,1,28.765,13.1c.992.724,1.325,1.213-.106,1.891-4.214,2-6.408,5.859-8.751,9.612a57.393,57.393,0,0,1-5.375,7.664c-2.742,3.111-5.762,3.159-9.038.536-2.7-2.163-5.305-4.45-7.993-6.63a15.322,15.322,0,0,0-7.254-3.385c-3.023-.478-5.48.99-7.561,2.986-3.178,3.048-6.23,6.226-9.364,9.321A11.32,11.32,0,0,1,379,40.212c-.829-.017-1.66.039-2.487-.011a6.642,6.642,0,0,0-6.094,3.022,43.77,43.77,0,0,0-2.833,5.228c-.54,1.057-.159,1.52,1.016,1.383a10.015,10.015,0,0,1,1.16-.007q50.983,0,101.965-.035c1.55,0,2.572.328,3.316,1.761,2.991,5.763,6.114,11.457,9.081,17.232A189.429,189.429,0,0,1,495.328,96.29c2.83,8.605,5.375,17.316,7.7,26.072,1.757,6.62,3.146,13.353,4.369,20.1,1.33,7.33,2.388,14.714,3.351,22.1.567,4.349.709,8.752,1.058,13.13.074.928.217,1.85.328,2.775-4.87.02-9.74.023-14.609.089-.46.006-.915.4-1.373.62h-9.286" transform="translate(-207.495 0)" fill="#ccddf5"/>
    <path id="Tracé_4979" data-name="Tracé 4979" d="M82.046,332.361l-6.248,0c-.295-.218-.586-.622-.884-.627q-4.469-.071-8.94,0c-.3,0-.6.407-.9.625H60.526a4.682,4.682,0,0,0-1.45-.569c-2.736-.081-5.474-.08-8.211-.107-.11-5.236-.305-10.472-.307-15.709,0-5.015.033-10.04.344-15.043.616-9.918,1.6-19.807,4.31-29.417,2.272-8.055,5.76-15.485,11.994-21.312a39.738,39.738,0,0,1,14.3-8.363c5.973-2.079,12-4.005,18-6.014a111.537,111.537,0,0,0,19.486-8.519c.613-.346,1.208-.724,1.811-1.087.021,2.146,0,4.294.091,6.437a5.034,5.034,0,0,0,.622,1.541q0,2.979,0,5.957c-.6.024-1.206.069-1.809.069-7.869.005-15.738.02-23.606-.007-1.714-.006-3.044.428-3.494,2.285l-.038,1.942-.013,6.016a12.315,12.315,0,0,0-.209,1.591q-.028,5.274,0,10.547a12.47,12.47,0,0,0,.251,1.741,2.792,2.792,0,0,0,3.145,2.375c8.588-.056,17.177,0,25.765.021q0,5.924,0,11.848a6.072,6.072,0,0,0-.618,1.717c-.079,1.929-.082,3.865-.009,5.795.038,1.019-.193,1.441-1.321,1.5a17.826,17.826,0,0,0-4.163.706c-12.486,3.743-19.067,15.583-15.969,27.96,1.67,6.671,6.01,11.587,12.27,14.66.354.173.7.371,1.042.557l-.084.274h-2.278c-8.889,0-17.777-.011-26.666.026a5.549,5.549,0,0,0-1.672.582" transform="translate(-33.789 -151.192)" fill="#ccddf5"/>
    <path id="Tracé_4980" data-name="Tracé 4980" d="M184.966,195.415a5.026,5.026,0,0,1-.622-1.541c-.09-2.144-.071-4.292-.091-6.438q.031-3.775.062-7.551c.02-2.3.742-3.289,3-4.1l.139.041.132-.061,12.626-.041c4.02.024,8.04.029,12.059.086.819.012,1.113-.235,1.241-1.078a7.8,7.8,0,0,1,7.2-6.52,8.073,8.073,0,0,1,8.76,7.313l.242.219c.662.017,1.324.049,1.986.049q47.489,0,94.978.023a8.957,8.957,0,0,1,2.845.5,2.4,2.4,0,0,1,1.707,2.486c0,.11-.005.221,0,.331.062,1.3-.34,3.01.332,3.785.556.641,2.38.2,3.642.206q8.7.013,17.4,0c1.088,0,2.119.046,2.536,1.313q.036.2.072.4,0,5.553,0,11.105c0,2.951-.285,3.245-3.187,3.247-6.3,0-12.6.041-18.9-.03-1.314-.015-1.648.351-1.625,1.644.081,4.639.1,9.283-.009,13.922-.035,1.465.452,1.678,1.757,1.659,5.026-.076,10.055-.01,15.083-.037,3.184-.018,5.895.653,6.8,4.246q.032.2.063.395l-.013,68.908-.054.39-1.055,2.689h7.546c2.468,0,4.937-.03,7.4.027a3.947,3.947,0,0,1,1.324.58c-.173.246-.3.6-.532.71a2.443,2.443,0,0,1-.979.059q-31.246.065-62.493.121c-.491,0-.982-.088-1.473-.136l-.066-.262q-.012.126-.025.253c-.276.008-.552.023-.828.024q-31.918.065-63.835.118c-16.414,0-32.829-.093-49.243-.116-14.516-.021-29.032,0-43.547-.022-.656,0-1.639.489-1.844-.75a5.549,5.549,0,0,1,1.673-.582c8.888-.037,17.777-.026,26.665-.026h2.278l.084-.274c-.347-.186-.689-.383-1.042-.557-6.26-3.073-10.6-7.989-12.27-14.66-3.1-12.377,3.483-24.217,15.969-27.96a17.825,17.825,0,0,1,4.162-.706c1.128-.058,1.36-.481,1.321-1.5-.073-1.929-.069-3.866.009-5.795a6.093,6.093,0,0,1,.618-1.717,11.5,11.5,0,0,0,1.149.111q18.628.011,37.256,0a1.273,1.273,0,0,0,.443-.092c-4.119-3.791-8.244-7.6-12.4-11.382a2.106,2.106,0,0,0-1.29-.518c-8.388-.012-16.776.014-25.164.031-8.588-.018-17.177-.077-25.765-.021a2.792,2.792,0,0,1-3.145-2.374q-.022-6.939-.044-13.879.006-3.008.013-6.016.019-.971.038-1.942c.449-1.857,1.78-2.29,3.493-2.285,7.869.026,15.738.012,23.606.007.6,0,1.206-.045,1.809-.069,3.132.024,6.264.033,9.4.075,2.084.028,3.18,1.057,3.192,3.069q.043,7.011-.021,14.022c0,.407-.426.809-.653,1.213-.224-.4-.624-.8-.643-1.213-.09-1.962-.075-3.93-.1-5.9l-.228-.219-38.163-.021-.249.223q-.03,6.154-.06,12.308c-.007,1.4.737,1.829,2.017,1.58q18.566.021,37.133.042c4.224,0,8.448,0,12.945,0-1.626-1.917-3.006-3.623-4.475-5.248a2.025,2.025,0,0,1-.077-3.129,109.372,109.372,0,0,1,21.665-20.209,60.191,60.191,0,0,1,15.919-8.331c6.644-2.145,13.41-3.526,20.424-2.182a88.92,88.92,0,0,1,10.6,2.4,58.175,58.175,0,0,1,18.007,9.988c4.766,3.753,9.2,7.931,13.679,12.04,1.812,1.663,3.336,3.639,4.991,5.474,1.707,2.466,1.711,2.469-.262,4.861-1.106,1.341-2.229,2.669-3.345,4l-.21.233.24.025.673.012c.274.025.548.071.821.071q21.541.005,43.081-.009a5.48,5.48,0,0,0,1.195-.271c.96.076,1.513-.15,1.4-1.331-.127-1.313.016-2.65-.057-3.972a3.2,3.2,0,0,0-2.872-3.06,17.792,17.792,0,0,0-2.443-.189c-9.547-.013-19.093.006-28.64-.04a6.184,6.184,0,0,1-1.936-.714,4.193,4.193,0,0,1,1.41-.606c3.2-.054,6.412,0,9.617-.063.418-.009,1.181-.5,1.185-.782.077-4.808.08-9.617.053-14.425-.008-1.429-.606-2-2.25-1.975-8.179.119-16.36.061-24.541.047-2.275,0-2.557-.291-2.568-2.575q-.029-5.555,0-11.11c.013-1.988.414-2.359,2.438-2.36q11.525-.008,23.049,0c3.646,0,3.585,0,3.621-3.73a2.006,2.006,0,0,0-1.574-2.154,5.433,5.433,0,0,0-1.643-.086q-47.674,0-95.347,0c-.277,0-.621-.1-.815.023-.422.276-1.039.627-1.1,1.022-.612,3.873-4.2,6.308-7.752,6.558a7.9,7.9,0,0,1-8.085-6.082c-.313-1.133-.739-1.562-1.976-1.551-7.683.064-15.366.031-23.049.035-2.2,0-2.9.714-2.908,2.988-.008,4.477.025,8.955-.033,13.431a5.964,5.964,0,0,1-.681,1.839m10.632,8.12-1.1-.691-22.862-.011c-4.2,0-8.394.02-12.59-.012-1.4-.011-1.582.781-1.628,1.923-.06,1.472.949.8,1.568.872a15.045,15.045,0,0,0,1.655.012l34.952-.049.571-.541q0-.35,0-.7l-.563-.8m34.22,37.78-.589.067.519.44c2.7,1.495,5.333,3.108,8.1,4.462,10.009,4.9,20.363,6.243,31.26,3.237,9.846-2.716,18.25-7.887,25.981-14.351l.389-.269c-.26-.117-.52-.335-.781-.337q-6.029-.032-12.058,0a10.123,10.123,0,0,0-1.554.244c-4.085,5.64-9.268,9.692-16.123,11.5a29.611,29.611,0,0,1-13.931.128c-.306-.065-.468-.808-.7-1.236,2.612.215,5.224.618,7.836.609,8.216-.028,14.873-3.443,20.13-9.688.358-.426.651-.905,1.1-1.539-4.968,0-9.606.008-14.244-.014a2.45,2.45,0,0,1-1.163-.341c-.112-.065-.082-.71.022-.753a3.406,3.406,0,0,1,1.254-.238c4.584-.015,9.168,0,13.752-.025.5,0,1.287-.063,1.459-.369.866-1.534,1.572-3.158,2.424-4.938-3.866,0-7.344.021-10.821-.028-.409-.006-.813-.387-1.219-.594.425-.243.846-.691,1.274-.7q4.97-.088,9.941-.01c.917.015,1.264-.323,1.4-1.182a33.071,33.071,0,0,0,.044-10.673,24.813,24.813,0,0,0-8.832-15.014,26.355,26.355,0,0,0-30.067-2.575,8.938,8.938,0,0,1-2.26.571c.245-.4.393-.965.75-1.179a29.66,29.66,0,0,1,9.944-3.874c6.5-1.207,12.459.109,18.182,2.988a25.28,25.28,0,0,1,8.765,7.624,27.746,27.746,0,0,1,5.414,17.689,51.766,51.766,0,0,1-.618,5.325,2.756,2.756,0,0,0,.831.289q8.946.025,17.891,0a3.617,3.617,0,0,0,.9-.24c1.591-1.754,3.14-3.549,4.79-5.245,1-1.026.828-1.774-.039-2.8a105.943,105.943,0,0,0-17.4-16.69c-8.808-6.605-18.224-11.707-29.466-12.876a40.705,40.705,0,0,0-17.27,1.581,69.283,69.283,0,0,0-24.111,13.693,131.79,131.79,0,0,0-14.976,15.215c-.158.192-.247.687-.124.828,1.844,2.118,3.73,4.2,5.605,6.292a12.052,12.052,0,0,0,1.728.245c9.728.007,19.457-.014,29.185.015.44,0,.88.422,1.32.647-.444.226-.884.637-1.333.647-3.314.074-6.629.069-9.944.088H213.171l-.275.526c4.449,3.666,8.89,7.34,13.361,10.979a2.316,2.316,0,0,0,1.365.438c4.132.009,8.264-.03,12.4-.054l.13.077.151-.011.414-.012,15.207-.005.378.07c.552,1.293-.248,1.345-1.192,1.344-4.016-.006-8.032.011-12.047.019l-1.1,0-12.135-.012M206.9,263.166l-.4.211c.9,3.6,1.768,7.2,1.081,10.962l.263.25c6.278.018,12.556.057,18.834.049,7.434-.009,14.868-.057,22.3-.088l.248-.21a15.45,15.45,0,0,1,.45-2.084,9.3,9.3,0,0,1,7.108-5.211,8.474,8.474,0,0,1,8.257,5.136c.226.6.385,1.217.575,1.827l.284.511,6.971.093.634.024,26.878-.047.342-.251q0-5.968.008-11.936c.031-.6.089-1.209.09-1.813q.008-12.023,0-24.046c0-2.109-.005-2.151-2.076-1.94a3.363,3.363,0,0,0-1.589.71c-1.666,1.276-3.25,2.657-4.922,3.925-9.054,6.87-18.981,11.87-30.4,13.132a40.666,40.666,0,0,1-17.757-2.037,73.5,73.5,0,0,1-16.354-8.119,5.665,5.665,0,0,0-2.9-.879c-7.959-.069-15.919-.038-23.879-.038-4.588,0-9.177.048-13.763-.031-1.273-.022-1.636.358-1.538,1.587a25.171,25.171,0,0,1,0,4.142c-.117,1.352.327,1.86,1.7,1.829a10.772,10.772,0,0,1,2.9.443,22.509,22.509,0,0,1,14.763,11.265,2.062,2.062,0,0,0,2.174,1.223c6.909-.039,13.819-.02,20.728-.02q32.42,0,64.839.029a7.084,7.084,0,0,1,2.024.648,8.215,8.215,0,0,1-2.3.717q-42.789.059-85.579.037m139.971,12.167a4.487,4.487,0,0,1-1.523.638q-20.548.053-41.1.028a3.162,3.162,0,0,0-1.147.031c-.339.143-.822.523-.825.8-.036,4.363-.079,8.728.041,13.088.058,2.11,1.061,2.981,3.071,2.984q22.538.026,45.074,0a3.142,3.142,0,0,0,3.331-3.165c.046-4.8-.016-9.607-.034-14.41a3.759,3.759,0,0,0,.064-.491q.006-22.878.034-45.756c0-1.141-.455-1.2-1.357-1.2q-23.293.032-46.585.03a2.153,2.153,0,0,0-1.355.338c-1.638,1.529-3.2,3.136-4.883,4.8,2.561.322,2.563.322,2.563,2.914,0,12.379.017,24.757-.029,37.136,0,1.2.236,1.612,1.527,1.58,3.921-.094,7.846-.034,11.77-.034,9.947,0,19.894-.01,29.841.029.506,0,1.011.427,1.517.655M184.608,250.089c-6.736-.188-12.334,3.074-16.74,8.278-3.925,4.635-5.023,10.488-4.248,16.284a19.467,19.467,0,0,0,5.906,11.773c4.437,4.2,9.469,6.546,15.6,6.528A21.382,21.382,0,0,0,206.5,271.534c0-11.937-9.527-21.445-21.892-21.445m9.179,42.833h42.527a5.705,5.705,0,0,1,.41-1.856,31.287,31.287,0,0,0,4.614-13.3c.163-1.215.06-1.824-1.513-1.81-9.721.087-19.444.041-29.166.047-1.1,0-2.383-.28-3.233.195-.575.32-.532,1.738-.782,2.66a8.892,8.892,0,0,1-.334.932,24.277,24.277,0,0,1-12.522,13.133M327.9,197.768c8.116,0,16.231-.024,24.347.026,1.226.007,1.626-.328,1.6-1.581-.08-3.421-.071-6.846,0-10.268.023-1.173-.376-1.493-1.519-1.491q-24.264.047-48.528,0c-1.155,0-1.531.345-1.51,1.5.062,3.366.087,6.737-.012,10.1-.041,1.407.428,1.751,1.78,1.741,7.949-.059,15.9-.029,23.85-.029m-70.437,95.151q8.87,0,17.74,0c1.85,0,2.176-.559,1.229-2.192a29.616,29.616,0,0,1-4.277-13.8,1.292,1.292,0,0,0-.895-.88c-1.486-.1-3,.086-4.469-.084-1.124-.129-1.333.575-1.519,1.263a8.157,8.157,0,0,1-7.2,6.4c-2.918.367-6.425-1.651-7.914-4.588-.5-.992-.685-2.523-1.461-2.909-1.019-.507-2.48-.127-3.752-.128a3.87,3.87,0,0,0-1.314.033c-.373.143-.9.541-.919.854a30.193,30.193,0,0,1-4.242,13.92c-.967,1.61-.668,2.107,1.251,2.109q8.87.009,17.74,0m44.1.048a45.762,45.762,0,0,1-.7-5.036c-.105-3.532-.056-7.07-.017-10.605.01-.9-.063-1.364-1.2-1.357-8.342.055-16.683.041-25.025.012-.863,0-1.134.221-1.079,1.106a29.021,29.021,0,0,0,3.942,12.742,4.78,4.78,0,0,1,.648,1.963c.063.923.393,1.2,1.309,1.193,7.456-.033,14.913-.019,22.121-.019M176.687,210.994c5.692,0,11.384.018,17.075-.008,2.726-.013,2.343.459,2.444-2.492.038-1.127-.261-1.525-1.46-1.52-11.936.042-23.872.061-35.808-.015-1.706-.011-1.535.9-1.5,1.959.031,1.042-.367,2.155,1.514,2.119,5.91-.115,11.825-.042,17.737-.042M257.48,268.7c-4.068-.535-6.961,3.558-6.865,6.63.1,3.3,3.091,7.039,5.973,6.908,4.1-.186,7.362-1.88,7.674-6.86.2-3.2-2.853-7.223-6.782-6.678m-35.848-98.838c-4.063,0-6.854,2.658-6.868,6.549a6.6,6.6,0,0,0,6.763,6.8,6.73,6.73,0,0,0,6.851-6.777c.015-3.332-2.908-7.041-6.747-6.567M303.123,227.9c-6.385,0-12.264-.007-18.142.02a1.126,1.126,0,0,0-.869.464c-.706,1.559-1.336,3.153-2.032,4.836,4.961,0,9.754.016,14.546-.025a2.391,2.391,0,0,0,1.442-.566c1.6-1.425,3.138-2.922,5.054-4.729" transform="translate(-97.239 -112.405)" fill="#041a31"/>
    <path id="Tracé_4981" data-name="Tracé 4981" d="M95.5,160.536q-13.1,0-26.2,0c-1.675,0-1.8-.18-.909-1.612.842-1.349,1.809-2.619,2.718-3.926,1.889-2.717,4.791-3.1,7.738-3.3,3.419-.232,5.585-2.433,7.591-4.805,2.02-2.389,3.8-4.986,5.832-7.361,3.25-3.792,7.714-4.534,12.3-2.676,4.517,1.831,7.794,5.215,10.416,9.139,2.872,4.3,5.353,8.856,8.057,13.268.752,1.226.093,1.283-.847,1.282q-3.316-.007-6.632,0H95.5" transform="translate(-45.34 -90.807)" fill="#ccddf5"/>
    <path id="Tracé_4982" data-name="Tracé 4982" d="M870.3,544.817c.458-.216.913-.613,1.373-.62,4.869-.065,9.74-.068,14.609-.089,1.6.02,3.194.008,4.787.088.295.015.571.4.855.613-.28.283-.559.811-.841.813q-9.916.068-19.832,0c-.319,0-.634-.524-.951-.8" transform="translate(-581.65 -363.644)" fill="#041a31"/>
    <path id="Tracé_4983" data-name="Tracé 4983" d="M39.445,544.2c2.737.027,5.476.026,8.212.107a4.7,4.7,0,0,1,1.45.569l-.335.732-.416.02c-4.518,0-9.036.015-13.553-.035-.446,0-.887-.417-1.331-.64a4.211,4.211,0,0,1,1.355-.644c1.535-.105,3.078-.083,4.619-.109" transform="translate(-22.37 -363.706)" fill="#041a31"/>
    <path id="Tracé_4984" data-name="Tracé 4984" d="M94.342,544.91c.3-.218.594-.621.9-.625q4.469-.072,8.94,0c.3,0,.589.408.883.627-.338.284-.67.807-1.014.815q-4.333.1-8.669,0c-.351-.008-.691-.531-1.035-.815" transform="translate(-63.051 -363.737)" fill="#041a31"/>
    <path id="Tracé_4985" data-name="Tracé 4985" d="M3.386,544.182c.876,0,1.758-.054,2.625.031.286.028.536.419.8.643-.269.3-.526.833-.808.847-1.694.08-3.395.082-5.088,0C.6,545.692.305,545.2,0,544.926c.308-.248.594-.666.928-.71a19.24,19.24,0,0,1,2.459-.034" transform="translate(0.001 -363.677)" fill="#041a31"/>
    <path id="Tracé_4986" data-name="Tracé 4986" d="M951.921,544.18a17.565,17.565,0,0,1,2.317.031c.354.047.662.43.991.66-.293.289-.576.814-.883.828-1.71.081-3.427.08-5.137,0-.277-.013-.527-.571-.79-.877.283-.214.55-.583.85-.612.876-.083,1.766-.03,2.65-.029" transform="translate(-633.856 -363.675)" fill="#041a31"/>
    <path id="Tracé_4987" data-name="Tracé 4987" d="M842.309,546.241h5.419c-.138.2-.272.575-.415.579q-2.294.064-4.589,0c-.144,0-.277-.377-.415-.578" transform="translate(-562.939 -365.069)" fill="#041a31"/>
    <path id="Tracé_4988" data-name="Tracé 4988" d="M271.854,191.028l-.132.061-.14-.041.272-.02" transform="translate(-181.506 -127.67)" fill="#d0f8ee"/>
    <path id="Tracé_4989" data-name="Tracé 4989" d="M625.786,547.969c.008-.084.017-.168.025-.253.022.087.044.174.066.262l-.091-.009" transform="translate(-418.231 -366.054)" fill="#8797a9"/>
    <path id="Tracé_4990" data-name="Tracé 4990" d="M78.348,548.47l.416-.02-.416.02" transform="translate(-52.362 -366.545)" fill="#8797a9"/>
    <path id="Tracé_4991" data-name="Tracé 4991" d="M398.934,190.523l-.242-.219.242.219" transform="translate(-266.457 -127.186)" fill="#d0f8ee"/>
    <path id="Tracé_4992" data-name="Tracé 4992" d="M777.588,535.507l.054-.39-.054.39" transform="translate(-519.684 -357.634)" fill="#8797a9"/>
    <path id="Tracé_4993" data-name="Tracé 4993" d="M777.664,326.561l-.063-.395.063.395" transform="translate(-519.693 -217.986)" fill="#8797a9"/>
    <path id="Tracé_4994" data-name="Tracé 4994" d="M777.671,217.564l-.073-.4.073.4" transform="translate(-519.691 -145.14)" fill="#8797a9"/>
    <path id="Tracé_4995" data-name="Tracé 4995" d="M213.1,213.4a5.966,5.966,0,0,0,.681-1.839c.059-4.476.025-8.954.033-13.431,0-2.274.7-2.987,2.908-2.988,7.683,0,15.366.03,23.049-.035,1.237-.01,1.663.419,1.976,1.551a7.9,7.9,0,0,0,8.085,6.082c3.551-.25,7.141-2.685,7.752-6.558.062-.4.68-.746,1.1-1.022.194-.127.539-.023.815-.023q47.674,0,95.348,0a5.43,5.43,0,0,1,1.643.086,2.006,2.006,0,0,1,1.574,2.154c-.036,3.729.025,3.73-3.621,3.73q-11.524,0-23.049,0c-2.024,0-2.426.371-2.438,2.36q-.035,5.555,0,11.11c.012,2.284.294,2.571,2.568,2.575,8.181.014,16.362.072,24.541-.047,1.644-.024,2.241.546,2.249,1.975.027,4.809.025,9.618-.053,14.425,0,.279-.768.773-1.185.782-3.2.065-6.412.01-9.617.063a4.193,4.193,0,0,0-1.409.606c-1.6,0-3.2-.052-4.8.008-.953.036-1.9.243-2.848.374-1.655-1.834-3.179-3.81-4.99-5.474-4.475-4.108-8.914-8.287-13.68-12.04a58.168,58.168,0,0,0-18.007-9.988,88.911,88.911,0,0,0-10.6-2.4c-7.013-1.344-13.78.037-20.424,2.182a60.2,60.2,0,0,0-15.919,8.331,109.381,109.381,0,0,0-21.665,20.209,2.025,2.025,0,0,0,.077,3.129c1.469,1.626,2.849,3.332,4.475,5.249-4.5,0-8.721,0-12.945,0q-18.566-.018-37.133-.042a12.335,12.335,0,0,1,1.747-.246q16.963-.022,33.926,0c1.132,0,1.917-.066,1.8-1.557-.13-1.645-.042-3.307-.048-4.962.228-.4.649-.806.653-1.213q.07-7.01.021-14.022c-.012-2.012-1.108-3.041-3.192-3.069-3.132-.042-6.264-.052-9.4-.075V213.4" transform="translate(-125.368 -130.389)" fill="#d0f8ee"/>
    <path id="Tracé_4996" data-name="Tracé 4996" d="M264.475,348.305c8.388-.018,16.776-.044,25.164-.031a2.1,2.1,0,0,1,1.29.518c4.154,3.78,8.28,7.592,12.4,11.382a1.271,1.271,0,0,1-.443.092q-18.628.009-37.255,0a11.509,11.509,0,0,1-1.149-.111q0-5.924,0-11.848" transform="translate(-176.756 -232.759)" fill="#d0f8ee"/>
    <path id="Tracé_4997" data-name="Tracé 4997" d="M176.728,299.307q.022,6.94.044,13.879a12.475,12.475,0,0,1-.251-1.742q-.036-5.273,0-10.547a12.321,12.321,0,0,1,.209-1.591" transform="translate(-117.963 -200.035)" fill="#d0f8ee"/>
    <path id="Tracé_4998" data-name="Tracé 4998" d="M177.257,275.315l-.038,1.942.038-1.942" transform="translate(-118.441 -184.001)" fill="#d0f8ee"/>
    <path id="Tracé_4999" data-name="Tracé 4999" d="M657.563,395.616c-.506-.228-1.011-.653-1.517-.655-9.947-.039-19.894-.029-29.841-.029-3.924,0-7.849-.06-11.77.034-1.291.031-1.531-.378-1.527-1.58.045-12.378.028-24.757.028-37.136,0-2.592,0-2.592-2.563-2.914,1.678-1.667,3.244-3.274,4.883-4.8a2.151,2.151,0,0,1,1.355-.338q23.293-.025,46.585-.029c.9,0,1.36.063,1.357,1.2q-.066,22.878-.035,45.757a3.738,3.738,0,0,1-.064.491h-6.892M641.6,362.078l-.359-.015-5.278.009-.355.016-8.52,1.722c-.819.166-1.125.6-1.1,1.491a44.935,44.935,0,0,1-.034,7.285c-.577,4.248,1.456,7.165,4.309,9.8a16.631,16.631,0,0,0,7.163,4.288,4.225,4.225,0,0,0,1.848.129c5.389-1.173,8.908-4.79,11.769-9.2a3.354,3.354,0,0,0,.411-1.716c.037-3.481-.02-6.963.047-10.442.018-.954-.281-1.447-1.181-1.627q-4.361-.866-8.72-1.737" transform="translate(-407.93 -232.689)" fill="#d0f8ee"/>
    <path id="Tracé_5000" data-name="Tracé 5000" d="M375.663,396.071a7.074,7.074,0,0,0-2.024-.648q-32.42-.052-64.839-.029c-6.909,0-13.819-.019-20.728.02a2.063,2.063,0,0,1-2.174-1.223,22.506,22.506,0,0,0-14.762-11.265,10.764,10.764,0,0,0-2.9-.443c-1.377.031-1.822-.477-1.7-1.829a25.173,25.173,0,0,0,0-4.141c-.1-1.23.266-1.609,1.538-1.587,4.587.079,9.175.031,13.763.031,7.96,0,15.92-.031,23.879.038a5.662,5.662,0,0,1,2.9.879,73.5,73.5,0,0,0,16.355,8.119,40.661,40.661,0,0,0,17.757,2.037c11.416-1.262,21.344-6.262,30.4-13.132,1.671-1.268,3.256-2.649,4.922-3.925a3.363,3.363,0,0,1,1.589-.71c2.07-.211,2.075-.169,2.075,1.94q0,12.023,0,24.045c0,.6-.058,1.209-.09,1.813l-5.949.011" transform="translate(-178.117 -246.064)" fill="#d0f8ee"/>
    <path id="Tracé_5001" data-name="Tracé 5001" d="M365.248,279.071c3.315-.019,6.631-.014,9.944-.088.449-.01.889-.422,1.333-.647-.44-.225-.879-.646-1.32-.647-9.728-.029-19.456-.008-29.185-.015a12.046,12.046,0,0,1-1.728-.245c.274-.019.549-.052.823-.053,6.113,0,12.227-.017,18.34.009,1.109,0,1.614-.162,1.285-1.5a32.986,32.986,0,0,1-.509-4.4,4.671,4.671,0,0,0,.367-1.2,26.227,26.227,0,0,1,5.18-15.068,20.425,20.425,0,0,0,1.178-2.095l4.269-4.309a8.937,8.937,0,0,0,2.259-.571,26.356,26.356,0,0,1,30.067,2.575,24.812,24.812,0,0,1,8.832,15.014,33.07,33.07,0,0,1-.043,10.673c-.136.859-.482,1.2-1.4,1.182q-4.969-.081-9.941.01c-.429.008-.85.455-1.275.7.406.207.81.589,1.219.594,3.477.048,6.955.027,10.821.027-.852,1.78-1.558,3.4-2.424,4.938-.172.305-.956.366-1.459.369-4.584.027-9.168.01-13.753.025a3.4,3.4,0,0,0-1.253.238c-.1.042-.134.688-.022.753a2.45,2.45,0,0,0,1.163.341c4.638.022,9.276.014,14.244.014-.45.633-.744,1.113-1.1,1.539-5.257,6.246-11.913,9.661-20.13,9.688-2.611.009-5.224-.394-7.835-.609a13.727,13.727,0,0,1-7.354-3.581.492.492,0,0,0,.078-.287c4.016-.008,8.031-.025,12.047-.019.944,0,1.745-.051,1.193-1.343l-.378-.07-15.206.005-.414.012-.151.011-.13-.077a27.078,27.078,0,0,1-1.868-2.055c-.763-1.022-1.423-2.121-2.127-3.188.932-.02,1.87.019,2.792-.087a4.058,4.058,0,0,0,1.2-.586c-.374-.236-.737-.651-1.124-.675-1.257-.076-2.522-.009-3.785,0l-2.721-5.3m27.95,12.116a6.818,6.818,0,0,0,.3,1.349c1.143-.041,2.282-.206,3.422-.341l.1-.026-.024-.091c-.281-.349-.526-.952-.849-1a18.947,18.947,0,0,0-2.8-.016l-.125-.007Zm8.538-20.245c0-7.182-4.349-11.234-12.174-11.149-5,.054-10.105,5.094-10.049,11.052a11.419,11.419,0,0,0,11.111,11.188,10.808,10.808,0,0,0,11.112-11.09m-22.229-10.526c2.289.016,4.41-1.916,4.279-4.086-.147-2.434-1.293-3.984-4.434-4.156a3.706,3.706,0,0,0-3.887,3.919,4.2,4.2,0,0,0,4.042,4.322m3.177,25.259v0a16.38,16.38,0,0,0,1.974-.03c.191-.023.467-.411.467-.632s-.285-.635-.458-.642c-1.316-.053-2.637-.053-3.953,0-.179.007-.473.412-.475.634a.81.81,0,0,0,.472.632,16.307,16.307,0,0,0,1.974.03m-5.66.007a5.9,5.9,0,0,0,1.31-.028.826.826,0,0,0,.5-.606c.008-.227-.259-.649-.434-.664a14.078,14.078,0,0,0-2.463,0c-.171.015-.433.451-.42.68a.881.881,0,0,0,.526.593,3.054,3.054,0,0,0,.979.024" transform="translate(-230.101 -163.522)" fill="#d0f8ee"/>
    <path id="Tracé_5002" data-name="Tracé 5002" d="M220.66,415.107c12.366,0,21.9,9.508,21.892,21.445A21.382,21.382,0,0,1,221.18,457.97c-6.133.019-11.166-2.332-15.6-6.528a19.467,19.467,0,0,1-5.906-11.773c-.775-5.8.323-11.649,4.248-16.284,4.407-5.2,10-8.466,16.74-8.278m5.6,22.838a7.92,7.92,0,0,0-1.283-6.12,4.832,4.832,0,0,0-1.324-.876,5.627,5.627,0,0,0,.3,1.535,10.706,10.706,0,0,1,.328,9.94c-.686,1.445-1.758,2.535-3.632,2.286-.348-.046-.741.247-1.114.383.336.291.635.763,1.015.841A3.951,3.951,0,0,0,224.6,444.3a7.9,7.9,0,0,0,1.661-6.35m-5.136-10.816a27.371,27.371,0,0,0-3.138,1.319c-.429.24-.62.908-.918,1.382a4.51,4.51,0,0,0,1.531-.292,4.51,4.51,0,0,1,6.017.58,9.534,9.534,0,0,1,2.726,6.036c.034.3.4.569.617.853a3.581,3.581,0,0,0,.595-1.122,7.133,7.133,0,0,0-.22-1.414c-.338-3.661-3.8-7.13-7.21-7.341m.445,21.311c.859-.386,2.06-.861,3.188-1.473.341-.185.477-.747.706-1.137a3.636,3.636,0,0,0-1.407.13c-2.742,1.554-5.23,1.071-6.982-1.562a31.2,31.2,0,0,1-1.465-3.111,12.241,12.241,0,0,0-1.039-1.471c-.071.584-.366,1.259-.172,1.736a20.665,20.665,0,0,0,2.124,4.23c1.079,1.517,2.747,2.288,5.047,2.658m-11.583-14.806.435.707c.317-.292.818-.529.923-.883a13.614,13.614,0,0,1,5.3-7.743,4.1,4.1,0,0,0,.786-1.085c-.512.025-1.147-.139-1.518.1-3.161,2.058-4.932,5.086-5.926,8.9m11.081-8.2a3.608,3.608,0,0,0-1.073.024,5.164,5.164,0,0,0-1.143.631,5.307,5.307,0,0,0,1.308.618,12.775,12.775,0,0,0,1.531-.085c2.871.136,4.676,1.839,6.11,4.135.243.39.779.6,1.18.888-.027-.537.14-1.2-.112-1.59-1.759-2.749-3.937-4.894-7.8-4.621m4.038-1.574c-.2.187-.542.374-.533.542a1.05,1.05,0,0,0,.424.765,13.161,13.161,0,0,1,5.981,7.367c.1.282.594.422.905.628.09-.382.355-.828.242-1.136a13.5,13.5,0,0,0-5.937-7.6c-.331-.186-.674-.351-1.084-.565m-13.762,12.184.377.151a2.862,2.862,0,0,0,.014.824,12.829,12.829,0,0,0,.563,1.307,6.923,6.923,0,0,0,.7-1.269q1.015-3.27,1.935-6.569a7.072,7.072,0,0,0,.106-1.428c-.418.269-1.05.443-1.217.822-.892,2.026-1.667,4.1-2.483,6.164m-1.045,3.994c-.3.8-.633,1.247-.522,1.479q1.734,3.606,3.628,7.133c.119.221.734.175,1.118.252a3.524,3.524,0,0,0-.154-1.029c-1.038-2.16-2.107-4.3-3.18-6.447-.171-.342-.413-.649-.89-1.388m20.933-1.75-.288-.082a2.043,2.043,0,0,0-.012-.656c-.169-.468-.4-.915-.6-1.37a6.959,6.959,0,0,0-.676,1.4c-.5,2.108-.943,4.229-1.371,6.352a6.678,6.678,0,0,0-.006,1.326c.4-.28,1.047-.48,1.17-.852.667-2.015,1.2-4.073,1.787-6.116M216.7,435.38c-.3.358-.579.536-.6.745a10.982,10.982,0,0,0,1.311,7.322c.149.24.613.285.931.42.055-.338.262-.749.142-1a13.622,13.622,0,0,1-1.47-6.662c.012-.212-.158-.433-.31-.821m.356,12.358-2.868-3.639c-.26.3-.8.775-.739.865a28.458,28.458,0,0,0,2.24,3.016c.122.142.7-.113,1.368-.241m-3.371-12.646,1,1.117a14.381,14.381,0,0,0,.962-2.123c.072-.25-.364-.647-.567-.977l-1.393,1.983m6.19-3.006-.537-.694c-.234-.188-.664-.553-.675-.54a20.748,20.748,0,0,0-1.456,1.807c-.01.014.523.562.652.506a22.1,22.1,0,0,0,2.017-1.079" transform="translate(-133.29 -277.423)" fill="#0fb287"/>
    <path id="Tracé_5003" data-name="Tracé 5003" d="M291.1,510.009a24.276,24.276,0,0,0,12.522-13.133,8.859,8.859,0,0,0,.334-.933c.25-.922.207-2.339.782-2.66.85-.474,2.134-.194,3.233-.195,9.722-.006,19.444.039,29.166-.047,1.573-.014,1.676.594,1.513,1.809a31.292,31.292,0,0,1-4.614,13.3,5.715,5.715,0,0,0-.41,1.856Z" transform="translate(-194.548 -329.491)" fill="#eef3f6"/>
    <path id="Tracé_5004" data-name="Tracé 5004" d="M643.8,230.542c-7.95,0-15.9-.03-23.85.029-1.353.01-1.821-.334-1.78-1.741.1-3.365.073-6.735.012-10.1-.021-1.156.355-1.5,1.51-1.5q24.264.049,48.528,0c1.142,0,1.542.317,1.519,1.491-.066,3.422-.075,6.846,0,10.268.03,1.252-.371,1.588-1.6,1.581-8.115-.049-16.231-.026-24.347-.025m-16.347-5.975,1.676-1.446-2.006-.248-.833-1.649-.951,1.567-1.947.319,1.687,1.436a2.328,2.328,0,0,0-.214.394c-.164.488-.308.981-.461,1.473a13.935,13.935,0,0,1,1.326-.732,1.368,1.368,0,0,1,.923-.126,10.293,10.293,0,0,1,1.446.86c-.179-.533-.356-1.068-.541-1.6a1.538,1.538,0,0,0-.107-.25m11.925-.107,1.437-1.4-2.037-.164-.959-1.662-.75,1.879a.784.784,0,0,0-.28-.054c-.546-.011-1.471-.188-1.576.028-.584,1.2.779.575,1.073,1.01.157.232.41.524.37.742-.1.557-1.472.916-.295,1.6.178.1.9-.744,1.383-1.143.075-.062.188-.079.016-.011l1.993,1.184-.375-2m9.534-1.521c-.68,0-1.89-.189-1.969.03-.551,1.527,1.389.628,1.549,1.178l-.684,2.221,1.986-.936c.4.265,1.328,1.148,1.562.992,1.325-.885-.974-1.256-.358-2.055.588-.32,1.625-.906,1.554-1.12-.539-1.6-1.516.293-2.1-.094l-.81-1.915-.726,1.7m11.764-.081-2.144.308,1.728,1.389a3.5,3.5,0,0,0-.56.82,3.786,3.786,0,0,0-.081,1.062c.318-.105.831-.124.922-.33.54-1.216.994-.979,1.6-.05.116.179.6.122.91.174a3.391,3.391,0,0,0-.157-.872,8.276,8.276,0,0,0-.677-1.039,2.956,2.956,0,0,0,.763-.2c.371-.236.707-.529,1.057-.8a4.968,4.968,0,0,1-1.3-.272c-.3-.15-.489-.533-.707-.828-.239-.323-.454-.664-.679-1a5.579,5.579,0,0,0-.586.943,1.983,1.983,0,0,0-.082.69" transform="translate(-413.142 -145.179)" fill="#0fb287"/>
    <path id="Tracé_5005" data-name="Tracé 5005" d="M559.566,510.15c-7.208,0-14.665-.014-22.121.018-.916,0-1.246-.27-1.309-1.193a4.777,4.777,0,0,0-.647-1.963,29.025,29.025,0,0,1-3.943-12.742c-.055-.885.216-1.109,1.079-1.106,8.342.03,16.683.043,25.025-.012,1.14-.007,1.214.454,1.2,1.357-.039,3.535-.089,7.073.017,10.605a45.778,45.778,0,0,0,.7,5.036" transform="translate(-355.242 -329.587)" fill="#eef3f6"/>
    <path id="Tracé_5006" data-name="Tracé 5006" d="M200.707,289.116c-5.913,0-11.827-.073-17.737.042-1.882.037-1.484-1.077-1.514-2.119-.031-1.062-.2-1.97,1.5-1.959,11.936.076,23.872.057,35.808.016,1.2,0,1.5.393,1.46,1.52-.1,2.952.282,2.48-2.444,2.492-5.691.026-11.383.008-17.075.008" transform="translate(-121.258 -190.527)" fill="#0fb287"/>
    <path id="Tracé_5007" data-name="Tracé 5007" d="M469.292,471.143c3.929-.545,6.982,3.477,6.782,6.678-.311,4.98-3.578,6.674-7.674,6.86-2.883.131-5.87-3.6-5.973-6.908-.1-3.072,2.8-7.165,6.865-6.63m3.239,4.906a2.089,2.089,0,0,0-.632-.307,1.26,1.26,0,0,0-.831.123c-.59.491-1.1,1.077-1.666,1.6-.633.581-1.149,1.695-2.262.6-.012-.012-.8.547-.758.738a1.6,1.6,0,0,0,2.763.75c.9-.89,1.783-1.794,2.67-2.7.186-.189.354-.4.715-.807" transform="translate(-309.051 -314.845)" fill="#0fb287"/>
    <path id="Tracé_5008" data-name="Tracé 5008" d="M361.208,173.16c3.839-.474,6.762,3.235,6.747,6.567A6.73,6.73,0,0,1,361.1,186.5a6.6,6.6,0,0,1-6.763-6.8c.014-3.891,2.8-6.553,6.867-6.55m-2.519,6.76c-.151.186-.571.569-.517.656a6.812,6.812,0,0,0,1.292,1.609,1.142,1.142,0,0,0,1.061-.172,39.748,39.748,0,0,0,2.911-2.914,3.549,3.549,0,0,0,.436-1.251,8.634,8.634,0,0,0-1.312.323c-1.276.527-1.537,3.211-3.871,1.75" transform="translate(-236.816 -115.7)" fill="#0fb287"/>
    <path id="Tracé_5009" data-name="Tracé 5009" d="M633.54,343.524a5.374,5.374,0,0,1,1.1-.228q22,0,44,.019a5.486,5.486,0,0,1-1.195.271q-21.541.021-43.081.008c-.274,0-.548-.046-.821-.071" transform="translate(-423.413 -229.434)" fill="#d0f8ee"/>
    <path id="Tracé_5010" data-name="Tracé 5010" d="M565.507,343.3l19.622.051a3.64,3.64,0,0,1-.9.24q-8.945.021-17.89,0a2.755,2.755,0,0,1-.832-.289" transform="translate(-377.945 -229.435)" fill="#d0f8ee"/>
    <path id="Tracé_5011" data-name="Tracé 5011" d="M568.3,368.885a10.529,10.529,0,0,0-1.711-.3c-4.1-.044-8.2-.051-12.293-.07a10.09,10.09,0,0,1,1.555-.245q6.029-.031,12.058,0c.261,0,.52.219.781.337l-.389.269" transform="translate(-370.454 -246.119)" fill="#d0f8ee"/>
    <path id="Tracé_5012" data-name="Tracé 5012" d="M294.327,273.625l-1.1-.949,1.1.691a.282.282,0,0,1-.006.258" transform="translate(-195.973 -182.237)" fill="#8797a9"/>
    <path id="Tracé_5013" data-name="Tracé 5013" d="M296.539,275.018a.282.282,0,0,0,.006-.258l.564.8-.569-.544" transform="translate(-198.186 -183.63)" fill="#d0f8ee"/>
    <path id="Tracé_5014" data-name="Tracé 5014" d="M529.54,489.057l.633.024Z" transform="translate(-353.907 -326.851)" fill="#eef3f6"/>
    <path id="Tracé_5015" data-name="Tracé 5015" d="M296.533,279.828l.571-.542-.571.542" transform="translate(-198.182 -186.655)" fill="#d0f8ee"/>
    <path id="Tracé_5016" data-name="Tracé 5016" d="M398.545,388.669q-.035.253-.07.507l-.519-.44.589-.067" transform="translate(-265.965 -259.759)" fill="#8797a9"/>
    <path id="Tracé_5017" data-name="Tracé 5017" d="M437.346,388.981l-1.026-.283,1.1,0a.492.492,0,0,1-.078.287" transform="translate(-291.605 -259.775)" fill="#8797a9"/>
    <path id="Tracé_5018" data-name="Tracé 5018" d="M507.667,487.237l.284.511-.284-.511" transform="translate(-339.288 -325.634)" fill="#eef3f6"/>
    <path id="Tracé_5019" data-name="Tracé 5019" d="M457.5,488.448l.248-.21-.248.21" transform="translate(-305.761 -326.303)" fill="#eef3f6"/>
    <path id="Tracé_5020" data-name="Tracé 5020" d="M612.489,488.481l.342-.251-.342.251" transform="translate(-409.344 -326.298)" fill="#eef3f6"/>
    <path id="Tracé_5021" data-name="Tracé 5021" d="M332.683,488.234l.263.25-.263-.25" transform="translate(-222.342 -326.301)" fill="#eef3f6"/>
    <path id="Tracé_5022" data-name="Tracé 5022" d="M329.827,454.549l-.4.211.4-.211" transform="translate(-220.164 -303.788)" fill="#8797a9"/>
    <path id="Tracé_5023" data-name="Tracé 5023" d="M478.426,384.376l.378.07-.378-.07" transform="translate(-319.746 -256.889)" fill="#8797a9"/>
    <path id="Tracé_5024" data-name="Tracé 5024" d="M431.329,384.4l.414-.012-.414.012" transform="translate(-288.27 -256.9)" fill="#8797a9"/>
    <path id="Tracé_5025" data-name="Tracé 5025" d="M631,343.169a.367.367,0,0,1,.03.258l-.24-.025.21-.233" transform="translate(-421.573 -229.35)" fill="#d0f8ee"/>
    <path id="Tracé_5026" data-name="Tracé 5026" d="M297.724,301.778l-.228-.219.228.219" transform="translate(-198.825 -201.541)" fill="#d0f8ee"/>
    <path id="Tracé_5027" data-name="Tracé 5027" d="M181.932,301.5l-.249.224.249-.224" transform="translate(-121.424 -201.498)" fill="#d0f8ee"/>
    <path id="Tracé_5028" data-name="Tracé 5028" d="M667.161,390.076l5.278-.009.359.015q4.36.869,8.72,1.737c.9.179,1.2.673,1.182,1.627-.067,3.48-.009,6.962-.047,10.442a3.36,3.36,0,0,1-.411,1.716c-2.861,4.413-6.379,8.03-11.769,9.2a4.225,4.225,0,0,1-1.848-.129,16.63,16.63,0,0,1-7.163-4.289c-2.853-2.635-4.886-5.553-4.309-9.8a44.908,44.908,0,0,0,.034-7.285c-.026-.887.28-1.325,1.1-1.491l8.519-1.722.355-.016m14.172,8.9c0-1.546.079-3.1-.045-4.633a1.881,1.881,0,0,0-.947-1.4,36.134,36.134,0,0,0-20.669-.129c-.933.258-1.146.791-1.121,1.687a38.544,38.544,0,0,1-.033,6.285c-.5,3.63,1.291,6.1,3.667,8.376a22.834,22.834,0,0,0,2.016,1.714c4.381,3.318,7.119,3.371,11.467-.011,3.627-2.821,6.7-6.017,5.669-11.233a3.514,3.514,0,0,1-.006-.661" transform="translate(-439.129 -260.693)" fill="#041a31"/>
    <path id="Tracé_5029" data-name="Tracé 5029" d="M703.8,390.082l-.359-.015.359.015" transform="translate(-470.128 -260.693)" fill="#8797a9"/>
    <path id="Tracé_5030" data-name="Tracé 5030" d="M686.81,390.1l-.355.016.355-.016" transform="translate(-458.778 -260.712)" fill="#8797a9"/>
    <path id="Tracé_5031" data-name="Tracé 5031" d="M472.708,301.408A10.807,10.807,0,0,1,461.6,312.5a11.419,11.419,0,0,1-11.111-11.188c-.056-5.958,5.048-11,10.049-11.052,7.824-.085,12.17,3.967,12.174,11.149m-1.33-.079c.659-4.893-4.1-9.855-9.567-9.838a9.927,9.927,0,0,0-9.959,9.669c-.19,5.308,4.555,9.943,9.878,9.968a9.606,9.606,0,0,0,9.649-9.8" transform="translate(-301.072 -193.987)" fill="#041a31"/>
    <path id="Tracé_5032" data-name="Tracé 5032" d="M442.318,275.522a4.2,4.2,0,0,1-4.042-4.322,3.705,3.705,0,0,1,3.887-3.919c3.142.171,4.287,1.722,4.434,4.156.131,2.169-1.99,4.1-4.279,4.086m2.656-4.213q-.02-2.7-2.637-2.718a2.513,2.513,0,0,0-2.693,2.717c0,1.681,1.01,2.6,2.843,2.582,1.9-.016,2.5-.641,2.486-2.581" transform="translate(-292.912 -178.627)" fill="#041a31"/>
    <path id="Tracé_5033" data-name="Tracé 5033" d="M402.439,288.51c-1.12.016-.97-.781-.973-1.5a26.006,26.006,0,0,1,4.592-14.38,12.7,12.7,0,0,1,1.674-2.227c.287-.281.943-.185,1.432-.261a20.358,20.358,0,0,1-1.178,2.094,26.229,26.229,0,0,0-5.18,15.069,4.665,4.665,0,0,1-.367,1.2" transform="translate(-268.308 -180.544)" fill="#041a31"/>
    <path id="Tracé_5034" data-name="Tracé 5034" d="M455.118,365.6a16.233,16.233,0,0,1-1.974-.031.809.809,0,0,1-.472-.632c0-.223.3-.627.475-.634,1.316-.055,2.637-.056,3.953,0,.173.007.459.418.458.641s-.276.609-.467.632a16.374,16.374,0,0,1-1.974.03Z" transform="translate(-302.534 -243.447)" fill="#041a31"/>
    <path id="Tracé_5035" data-name="Tracé 5035" d="M416.548,365.634c-1.11.1-.935-.676-.914-1.345,1.262-.012,2.528-.079,3.784,0,.387.024.75.439,1.124.675a4.041,4.041,0,0,1-1.2.586c-.922.105-1.86.067-2.792.087" transform="translate(-277.766 -243.439)" fill="#041a31"/>
    <path id="Tracé_5036" data-name="Tracé 5036" d="M495.47,385.582c-1.14.134-2.279.3-3.422.341a6.867,6.867,0,0,1-.305-1.348s.124-.01.124-.01l.025-.113a19,19,0,0,1,2.8.016c.323.045.568.648.849,1,0,0-.094.02-.094.02Z" transform="translate(-328.646 -256.908)" fill="#041a31"/>
    <path id="Tracé_5037" data-name="Tracé 5037" d="M439.947,365.6a3.088,3.088,0,0,1-.979-.025.88.88,0,0,1-.526-.593c-.013-.229.249-.665.42-.68a14.1,14.1,0,0,1,2.463,0c.175.015.443.437.434.664a.825.825,0,0,1-.5.606,5.982,5.982,0,0,1-1.31.03" transform="translate(-293.023 -243.434)" fill="#041a31"/>
    <path id="Tracé_5038" data-name="Tracé 5038" d="M502.942,387.716l-.02-.1s.094-.022.094-.02.024.093.024.093Z" transform="translate(-336.117 -259.043)" fill="#0fb287"/>
    <path id="Tracé_5039" data-name="Tracé 5039" d="M491.893,384.535l-.025.113s-.124.011-.124.01l.024-.13Z" transform="translate(-328.647 -256.991)" fill="#0fb287"/>
    <path id="Tracé_5040" data-name="Tracé 5040" d="M266.762,469.883a7.9,7.9,0,0,1-1.661,6.35,3.951,3.951,0,0,1-4.048,1.638c-.379-.077-.679-.55-1.015-.84.372-.136.766-.43,1.113-.383,1.874.249,2.946-.841,3.632-2.286a10.706,10.706,0,0,0-.328-9.939,5.629,5.629,0,0,1-.3-1.535,4.846,4.846,0,0,1,1.324.876,7.92,7.92,0,0,1,1.283,6.12" transform="translate(-173.791 -309.361)" fill="#eef3f6"/>
    <path id="Tracé_5041" data-name="Tracé 5041" d="M256.651,451.37c3.408.211,6.871,3.68,7.21,7.341a7.108,7.108,0,0,1,.22,1.414,3.575,3.575,0,0,1-.594,1.122c-.214-.283-.583-.549-.617-.853a9.533,9.533,0,0,0-2.726-6.036,4.51,4.51,0,0,0-6.017-.58,4.513,4.513,0,0,1-1.532.292c.3-.474.489-1.142.918-1.382a27.362,27.362,0,0,1,3.138-1.319" transform="translate(-168.816 -301.664)" fill="#eef3f6"/>
    <path id="Tracé_5042" data-name="Tracé 5042" d="M251.588,498.244c-2.3-.371-3.968-1.141-5.047-2.658a20.651,20.651,0,0,1-2.125-4.23c-.194-.477.1-1.152.172-1.736a12.187,12.187,0,0,1,1.039,1.471,31.1,31.1,0,0,0,1.466,3.111c1.751,2.633,4.239,3.116,6.981,1.562a3.631,3.631,0,0,1,1.408-.13c-.23.39-.366.952-.706,1.137-1.128.612-2.329,1.087-3.188,1.473" transform="translate(-163.307 -327.227)" fill="#eef3f6"/>
    <path id="Tracé_5043" data-name="Tracé 5043" d="M231.244,452.772c.994-3.816,2.765-6.844,5.926-8.9.371-.241,1.006-.078,1.518-.1a4.088,4.088,0,0,1-.786,1.085,13.614,13.614,0,0,0-5.3,7.743c-.1.355-.606.592-.923.884l-.435-.707" transform="translate(-154.547 -296.562)" fill="#eef3f6"/>
    <path id="Tracé_5044" data-name="Tracé 5044" d="M260.189,446.187c3.864-.273,6.042,1.872,7.8,4.621.252.393.085,1.053.112,1.59-.4-.291-.937-.5-1.18-.888-1.433-2.3-3.239-4-6.11-4.135a12.812,12.812,0,0,1-1.531.085,5.3,5.3,0,0,1-1.308-.618,5.169,5.169,0,0,1,1.143-.631,3.612,3.612,0,0,1,1.074-.024" transform="translate(-172.41 -298.179)" fill="#eef3f6"/>
    <path id="Tracé_5045" data-name="Tracé 5045" d="M275.755,441.505c.411.213.753.378,1.084.564a13.5,13.5,0,0,1,5.937,7.6c.113.307-.153.754-.242,1.135-.311-.206-.8-.346-.905-.628a13.16,13.16,0,0,0-5.982-7.367,1.053,1.053,0,0,1-.424-.765c-.009-.168.337-.354.533-.542" transform="translate(-183.939 -295.07)" fill="#eef3f6"/>
    <path id="Tracé_5046" data-name="Tracé 5046" d="M235.336,464.163c.816-2.06,1.591-4.137,2.483-6.163.167-.379.8-.553,1.217-.822a7.1,7.1,0,0,1-.106,1.429q-.921,3.3-1.935,6.569a6.923,6.923,0,0,1-.7,1.269,12.8,12.8,0,0,1-.563-1.307,2.849,2.849,0,0,1-.014-.823l-.377-.151" transform="translate(-157.282 -305.545)" fill="#eef3f6"/>
    <path id="Tracé_5047" data-name="Tracé 5047" d="M231.09,490.281c.477.739.718,1.046.89,1.388,1.073,2.142,2.143,4.287,3.18,6.447a3.537,3.537,0,0,1,.154,1.03c-.385-.078-1-.031-1.118-.252q-1.9-3.522-3.628-7.133c-.111-.231.225-.677.522-1.479" transform="translate(-154.08 -327.669)" fill="#eef3f6"/>
    <path id="Tracé_5048" data-name="Tracé 5048" d="M289.273,480.759c-.582,2.043-1.12,4.1-1.787,6.116-.123.372-.766.572-1.17.852a6.67,6.67,0,0,1,.006-1.326c.428-2.123.876-4.244,1.371-6.352a6.977,6.977,0,0,1,.676-1.4c.206.455.435.9.6,1.37a2.034,2.034,0,0,1,.012.656Z" transform="translate(-191.33 -319.896)" fill="#eef3f6"/>
    <path id="Tracé_5049" data-name="Tracé 5049" d="M250.04,476.246c.153.387.322.609.31.821a13.626,13.626,0,0,0,1.47,6.662c.121.255-.086.665-.141,1-.318-.135-.782-.18-.932-.42a10.984,10.984,0,0,1-1.311-7.322c.024-.208.3-.387.6-.745" transform="translate(-166.626 -318.289)" fill="#eef3f6"/>
    <path id="Tracé_5050" data-name="Tracé 5050" d="M245.291,506.171c-.663.128-1.246.383-1.367.241a28.45,28.45,0,0,1-2.24-3.016c-.058-.09.479-.568.739-.865l2.868,3.639" transform="translate(-161.521 -335.857)" fill="#d0f8ee"/>
    <path id="Tracé_5051" data-name="Tracé 5051" d="M242.4,471.38,243.8,469.4c.2.33.639.727.567.977a14.356,14.356,0,0,1-.962,2.123l-1-1.117" transform="translate(-162.006 -313.711)" fill="#d0f8ee"/>
    <path id="Tracé_5052" data-name="Tracé 5052" d="M255.689,463.826a22.072,22.072,0,0,1-2.017,1.079c-.129.055-.662-.492-.652-.506a20.746,20.746,0,0,1,1.456-1.807c.011-.013.441.352.675.54Z" transform="translate(-169.1 -309.163)" fill="#d0f8ee"/>
    <path id="Tracé_5053" data-name="Tracé 5053" d="M688.791,515.2a3.293,3.293,0,0,1-3.53-3.477,3.535,3.535,0,0,1,3.43-3.493,3.491,3.491,0,0,1,3.607,3.344c-.081,2.567-1.78,3.907-3.507,3.626m2.181-3.345a2.115,2.115,0,0,0-2.258-2.224,2.038,2.038,0,0,0-2.091,2.048,2.115,2.115,0,0,0,2.078,2.257,2.146,2.146,0,0,0,2.27-2.081" transform="translate(-457.98 -339.664)" fill="#041a31"/>
    <path id="Tracé_5054" data-name="Tracé 5054" d="M637.986,232.621a1.542,1.542,0,0,1,.107.25c.184.532.361,1.066.541,1.6a10.3,10.3,0,0,0-1.445-.86,1.369,1.369,0,0,0-.923.126,13.9,13.9,0,0,0-1.326.732c.152-.492.3-.985.46-1.473a2.323,2.323,0,0,1,.214-.394l-1.687-1.436,1.947-.319.951-1.567.832,1.649,2.006.248-1.676,1.446" transform="translate(-423.671 -153.233)" fill="#eef3f6"/>
    <path id="Tracé_5055" data-name="Tracé 5055" d="M673.436,232.523l.375,2-1.993-1.184c.172-.069.059-.052-.016.011-.479.4-1.206,1.247-1.383,1.144-1.176-.685.191-1.044.295-1.6.041-.218-.213-.51-.369-.742-.293-.435-1.657.188-1.073-1.01.105-.216,1.03-.039,1.576-.028a.792.792,0,0,1,.28.054l.75-1.879.959,1.662,2.037.164-1.437,1.4" transform="translate(-447.197 -153.242)" fill="#eef3f6"/>
    <path id="Tracé_5056" data-name="Tracé 5056" d="M706.7,231.027l.726-1.7.81,1.915c.588.387,1.565-1.508,2.1.095.072.213-.966.8-1.554,1.119-.616.8,1.683,1.17.358,2.055-.234.156-1.162-.726-1.562-.992l-1.986.936.684-2.221c-.16-.551-2.1.349-1.549-1.178.079-.22,1.289-.031,1.969-.031" transform="translate(-470.926 -153.267)" fill="#eef3f6"/>
    <path id="Tracé_5057" data-name="Tracé 5057" d="M742.013,230.915a1.98,1.98,0,0,1,.082-.69,5.587,5.587,0,0,1,.586-.943c.225.333.44.674.679,1,.218.295.407.678.706.828a4.97,4.97,0,0,0,1.3.272c-.35.27-.686.563-1.057.8a2.958,2.958,0,0,1-.763.2,8.277,8.277,0,0,1,.677,1.039,3.393,3.393,0,0,1,.157.872c-.313-.052-.794,0-.91-.174-.6-.929-1.056-1.166-1.6.05-.091.206-.6.225-.922.33a3.786,3.786,0,0,1,.081-1.062,3.5,3.5,0,0,1,.56-.82l-1.728-1.389,2.144-.308" transform="translate(-494.476 -153.236)" fill="#eef3f6"/>
    <path id="Tracé_5058" data-name="Tracé 5058" d="M202.924,334.059c-3.086,0-6.171.024-9.256-.029-.4-.007-.793-.413-1.189-.634.379-.249.757-.712,1.137-.715q9.421-.068,18.842.008c.38,0,.755.582,1.133.894a3.221,3.221,0,0,1-1.081.456c-3.2.036-6.391.021-9.587.021" transform="translate(-128.639 -222.317)" fill="#041a31"/>
    <path id="Tracé_5059" data-name="Tracé 5059" d="M201.235,323.973l.972.685c-.289.213-.573.6-.866.61-2.587.048-5.176.055-7.763-.006-.319-.007-.627-.479-.94-.736.307-.2.612-.577.923-.583,2.422-.052,4.845-.033,7.269-.036l.406.066" transform="translate(-128.745 -216.476)" fill="#041a31"/>
    <path id="Tracé_5060" data-name="Tracé 5060" d="M194.755,315.06a4.156,4.156,0,0,1,1.148.026c.271.081.473.394.706.6-.259.241-.5.653-.781.69a9.5,9.5,0,0,1-2.3.005c-.314-.037-.591-.4-.885-.607a4.094,4.094,0,0,1,.969-.694,3.626,3.626,0,0,1,1.147-.024" transform="translate(-128.746 -210.539)" fill="#041a31"/>
    <path id="Tracé_5061" data-name="Tracé 5061" d="M228.64,316.619c-.654-.331-1.894-.728-1.865-.981.158-1.378,1.346-.388,2.047-.657a1.234,1.234,0,0,1,.807,0,6.909,6.909,0,0,1,1.032.588,7.553,7.553,0,0,1-1.074.731,2.08,2.08,0,0,1-.81.019l-.138.3" transform="translate(-151.56 -210.447)" fill="#041a31"/>
    <path id="Tracé_5062" data-name="Tracé 5062" d="M246.426,315.065a1.856,1.856,0,0,1,.657.013c.458.187.889.441,1.331.668a6.049,6.049,0,0,1-1.34.648,4.036,4.036,0,0,1-1.645,0c-.36-.077-.661-.428-.989-.657a5.057,5.057,0,0,1,1-.647,3.021,3.021,0,0,1,.986-.022" transform="translate(-163.366 -210.546)" fill="#041a31"/>
    <path id="Tracé_5063" data-name="Tracé 5063" d="M213.813,315.706a3.6,3.6,0,0,1-.818.423,20.72,20.72,0,0,1-2.676.28c-.251,0-.564-.39-.728-.671-.051-.088.285-.58.462-.591a26.628,26.628,0,0,1,2.933-.013c.217.01.421.281.827.573" transform="translate(-140.072 -210.59)" fill="#041a31"/>
    <path id="Tracé_5064" data-name="Tracé 5064" d="M217.742,323.975l-.406-.066.406.066" transform="translate(-145.252 -216.478)" fill="#8797a9"/>
    <path id="Tracé_5065" data-name="Tracé 5065" d="M693.478,330.3c-.558-.951-1.127-1.489-1.049-1.9.085-.451.789-1.111,1.191-1.089a1.646,1.646,0,0,1,1.1,1.19c.036.426-.588.909-1.24,1.8" transform="translate(-462.765 -218.751)" fill="#041a31"/>
    <path id="Tracé_5066" data-name="Tracé 5066" d="M480.5,485.388c-.362.41-.529.618-.715.807-.887.9-1.771,1.806-2.67,2.7a1.6,1.6,0,0,1-2.763-.75c-.042-.191.746-.749.758-.738,1.113,1.091,1.629-.022,2.262-.6.567-.52,1.077-1.106,1.666-1.6a1.26,1.26,0,0,1,.831-.123,2.088,2.088,0,0,1,.632.307" transform="translate(-317.023 -324.185)" fill="#eef3f6"/>
    <path id="Tracé_5067" data-name="Tracé 5067" d="M366.4,189.45c2.334,1.462,2.6-1.223,3.871-1.75a8.636,8.636,0,0,1,1.312-.323,3.55,3.55,0,0,1-.436,1.251,39.755,39.755,0,0,1-2.911,2.914,1.142,1.142,0,0,1-1.061.172,6.811,6.811,0,0,1-1.292-1.609c-.054-.087.366-.471.517-.656" transform="translate(-244.527 -125.229)" fill="#eef3f6"/>
    <path id="Tracé_5068" data-name="Tracé 5068" d="M684.116,401.622a3.5,3.5,0,0,0,.005.661c1.027,5.216-2.042,8.412-5.669,11.233-4.348,3.382-7.086,3.329-11.467.011a22.859,22.859,0,0,1-2.016-1.714c-2.376-2.278-4.167-4.746-3.667-8.376a38.51,38.51,0,0,0,.032-6.285c-.025-.9.188-1.429,1.122-1.687a36.132,36.132,0,0,1,20.668.129,1.88,1.88,0,0,1,.947,1.4c.124,1.536.045,3.087.046,4.633" transform="translate(-441.91 -263.335)" fill="#0fb287"/>
    <path id="Tracé_5069" data-name="Tracé 5069" d="M474.119,303.813a9.606,9.606,0,0,1-9.649,9.8c-5.323-.025-10.068-4.66-9.878-9.968a9.927,9.927,0,0,1,9.959-9.669c5.472-.017,10.226,4.945,9.567,9.838" transform="translate(-303.814 -196.472)" fill="#0fb287"/>
    <path id="Tracé_5070" data-name="Tracé 5070" d="M693.718,514.659a2.146,2.146,0,0,1-2.27,2.081,2.115,2.115,0,0,1-2.078-2.257,2.038,2.038,0,0,1,2.091-2.048,2.115,2.115,0,0,1,2.258,2.224" transform="translate(-460.724 -342.469)" fill="#eef3f6"/>
  </g>
</svg>
