<svg xmlns="http://www.w3.org/2000/svg" xmlns:xlink="http://www.w3.org/1999/xlink" width="106" height="105.197" viewBox="0 0 106 105.197">
  <defs>
    <clipPath id="clip-path">
      <rect id="Rectangle_4922" data-name="Rectangle 4922" width="106" height="105.197" fill="none"/>
    </clipPath>
  </defs>
  <g id="Groupe_10365" data-name="Groupe 10365" clip-path="url(#clip-path)">
    <path id="Tracé_4911" data-name="Tracé 4911" d="M105.428,52.714A52.714,52.714,0,1,1,52.714,0a52.713,52.713,0,0,1,52.714,52.714" transform="translate(0.286 -0.231)" fill="#034aa6"/>
    <path id="Tracé_4912" data-name="Tracé 4912" d="M51.759,33.911A17.848,17.848,0,1,1,33.911,16.063,17.848,17.848,0,0,1,51.759,33.911" transform="translate(19.504 18.987)" fill="#fff"/>
    <path id="Tracé_4913" data-name="Tracé 4913" d="M30.385,16.441a59.49,59.49,0,0,1-7.472,10.791,59.327,59.327,0,0,1-5.81,5.812c1.891,1.975,3.848,4.182,5.81,6.642a96.546,96.546,0,0,1,7.472,10.791c-4.478-2.62-9.218-5.643-14.112-9.13-3.914-2.789-7.507-5.579-10.793-8.3,3.6-2.735,7.474-5.52,11.623-8.3,4.569-3.066,9.016-5.823,13.282-8.3" transform="translate(6.842 19.439)" fill="#fff"/>
    <path id="Tracé_4914" data-name="Tracé 4914" d="M31.181,16.441a59.49,59.49,0,0,0,7.472,10.791,59.328,59.328,0,0,0,5.81,5.812c-1.891,1.975-3.848,4.182-5.81,6.642a96.546,96.546,0,0,0-7.472,10.791c4.478-2.62,9.218-5.643,14.112-9.13,3.914-2.789,7.507-5.579,10.793-8.3-3.6-2.735-7.474-5.52-11.623-8.3-4.569-3.066-9.016-5.823-13.282-8.3" transform="translate(37.591 19.439)" fill="#fff"/>
  </g>
</svg>
